<svg width="545" height="545" viewBox="0 0 545 545" fill="none" xmlns="http://www.w3.org/2000/svg">
<path opacity="0.1" d="M268.761 545C398.767 545 504.158 537.019 504.158 527.173C504.158 517.328 398.767 509.346 268.761 509.346C138.755 509.346 33.3649 517.328 33.3649 527.173C33.3649 537.019 138.755 545 268.761 545Z" fill="black"/>
<path d="M246.809 379.974L238.35 521.778L209.901 519.118L227.908 378.208L246.809 379.974Z" fill="#192A37"/>
<path d="M213.607 490.113L209.901 519.118L238.35 521.778L240.241 490.113H213.607Z" fill="#CF0303"/>
<path d="M194.625 505.798L225.374 507.395C228.999 507.584 232.412 509.161 234.905 511.8C237.399 514.438 238.781 517.935 238.764 521.565V527.195H181.801L194.625 505.798Z" fill="#CF0303"/>
<path d="M178.395 527.14C178.395 515.336 182.673 505.765 193.655 505.765C204.637 505.765 208.915 515.336 208.915 527.14H178.395Z" fill="white"/>
<path d="M224.416 493.504L212.066 491.002C210.491 490.683 208.955 491.7 208.637 493.274C208.318 494.848 209.336 496.383 210.912 496.702L223.261 499.203C224.837 499.522 226.372 498.505 226.691 496.931C227.01 495.357 225.991 493.823 224.416 493.504Z" fill="white"/>
<path d="M221.269 503.193L208.919 500.692C207.344 500.373 205.808 501.39 205.489 502.964C205.171 504.538 206.189 506.072 207.765 506.391L220.114 508.892C221.69 509.212 223.225 508.194 223.544 506.62C223.863 505.047 222.844 503.512 221.269 503.193Z" fill="white"/>
<path d="M309.347 378.208L327.349 519.118L298.9 521.778L290.441 379.974L309.347 378.208Z" fill="#192A37"/>
<path d="M297.014 490.113L298.9 521.778L327.349 519.118L323.648 490.113H297.014Z" fill="#CF0303"/>
<path d="M342.625 505.798L311.876 507.395C308.252 507.585 304.839 509.163 302.346 511.801C299.853 514.439 298.471 517.935 298.486 521.565V527.195H355.449L342.625 505.798Z" fill="#CF0303"/>
<path d="M358.855 527.14C358.855 515.336 354.582 505.765 343.595 505.765C332.608 505.765 328.335 515.336 328.335 527.14H358.855Z" fill="white"/>
<path d="M314.051 499.176L326.401 496.674C327.976 496.355 328.995 494.821 328.676 493.247C328.357 491.673 326.822 490.656 325.246 490.975L312.897 493.476C311.321 493.795 310.303 495.33 310.622 496.904C310.94 498.477 312.476 499.495 314.051 499.176Z" fill="white"/>
<path d="M317.204 508.877L329.554 506.376C331.129 506.057 332.148 504.522 331.829 502.948C331.51 501.375 329.975 500.357 328.4 500.676L316.05 503.178C314.475 503.497 313.456 505.031 313.775 506.605C314.094 508.179 315.629 509.196 317.204 508.877Z" fill="white"/>
<path d="M44.6519 268.761C37.9756 268.761 31.7299 267.753 26.7268 265.137C23.942 263.725 21.5099 261.705 19.6102 259.227C17.7104 256.749 16.3914 253.876 15.7505 250.82C8.89985 220.125 42.5427 169.615 43.9761 167.435C44.8552 166.173 46.1952 165.306 47.707 165.023C49.2189 164.739 50.7816 165.061 52.0584 165.919C53.3352 166.777 54.2238 168.102 54.5327 169.609C54.8416 171.116 54.546 172.684 53.7098 173.975C44.7118 187.371 22.4159 226.84 27.1901 248.247C27.4532 249.643 28.0393 250.958 28.9014 252.087C29.7635 253.216 30.8777 254.128 32.155 254.749C45.6002 261.78 78.2838 251.218 89.7397 246.547C91.1717 245.998 92.762 246.031 94.1696 246.64C95.5772 247.25 96.6901 248.386 97.2697 249.806C97.8493 251.226 97.8494 252.817 97.2701 254.237C96.6908 255.657 95.5781 256.794 94.1705 257.403C90.5844 258.875 65.5526 268.761 44.6519 268.761Z" fill="#133441"/>
<path d="M43.1585 165.457C43.3765 167.092 51.5134 180.428 63.22 181.136C70.681 181.55 72.6921 176.231 72.6921 176.231C72.6921 176.231 78.8342 177.321 81.2922 173.288C83.7501 169.255 88.4317 154.922 72.6866 148.017C62.0537 143.373 41.965 156.862 43.1585 165.457Z" fill="#133441"/>
<path d="M43.1095 262.924C45.5167 262.312 47.7528 261.16 49.6481 259.554C51.5433 257.949 53.0479 255.933 54.0476 253.659C54.18 253.354 54.2307 253.02 54.1948 252.689L53.8296 249.452C53.4519 246.132 54.3971 242.796 56.4606 240.167C58.5241 237.539 61.5399 235.829 64.855 235.407C66.6786 235.176 68.5306 235.343 70.2833 235.897C72.036 236.451 73.6477 237.379 75.0071 238.616C76.3666 239.853 77.4416 241.371 78.1578 243.064C78.874 244.757 79.2145 246.585 79.1558 248.422C79.1448 248.833 79.2667 249.236 79.5034 249.572C79.74 249.907 80.0788 250.158 80.4692 250.286L87.854 252.684" fill="#133441"/>
<path d="M325.103 105.212C322.466 101.125 323.376 94.1815 323.643 89.6253C323.97 84.1046 324.728 78.6179 325.91 73.2153C329.393 57.2959 340.407 42.6408 351.525 31.1577C353.95 28.6561 350.522 24.3888 348.064 26.923C335.72 39.676 324.542 55.1104 320.46 72.6649C319.013 79.1925 318.206 85.8458 318.051 92.5301C317.871 97.8929 317.866 104.013 320.874 108.668C322.782 111.627 327 108.123 325.109 105.212H325.103Z" fill="#133441"/>
<path d="M322.673 108.144C359.389 118.151 374.791 104.253 377.538 101.67C380.448 98.9449 386.143 94.0399 391.163 82.2079C394.978 73.1773 397.659 62.1519 395.092 58.6912L322.433 108.095L322.673 108.144Z" fill="#8CB201"/>
<path d="M395.076 58.691C394.817 58.3287 394.47 58.038 394.068 57.8463C374.48 48.7884 357.591 52.5489 340.598 65.5253C323.605 78.5018 322.002 108.035 322.002 108.035L322.433 108.117L395.076 58.691Z" fill="#9DC232"/>
<path d="M96.307 191.584C108.068 162.268 120.832 144.561 159.456 120.423C231.031 79.799 401.251 96.8193 446.322 165.816C467.577 198.32 475.605 238.301 467.201 275.459C456.247 323.937 417.061 365.504 367.744 384.77C341.295 395.125 312.383 399.392 283.673 399.529C235.996 399.752 187.573 388.214 148.698 362.687C133.629 352.789 121.9 341.17 113.36 325.91C96.2797 295.227 80.2894 231.5 96.307 191.584Z" fill="#FF8804"/>
<path d="M320.46 103.55C320.787 38.1501 290.877 18.71 285.373 15.2928C279.541 11.6686 268.881 4.3928 247.005 1.32445C230.284 -1.0136 210.779 -0.544899 206.173 5.2321L320.46 103.97V103.55Z" fill="#8CB201"/>
<path d="M206.173 5.23193C205.688 5.82322 205.362 6.52852 205.225 7.28113C198.871 43.8288 212.605 70.2123 241.691 92.6881C270.778 115.164 320.509 104.727 320.509 104.727L320.46 103.97L206.173 5.23193Z" fill="#9DC232"/>
<path d="M258.559 241.217C257.915 251.516 253.37 261.182 245.849 268.247C238.329 275.312 228.398 279.245 218.079 279.245C207.76 279.245 197.829 275.312 190.309 268.247C182.788 261.182 178.243 251.516 177.599 241.217H258.559Z" fill="#2C120D"/>
<path d="M229.211 241.233V241.468C229.167 242.787 228.613 244.037 227.665 244.955C226.716 245.873 225.448 246.386 224.129 246.386C222.809 246.386 221.541 245.873 220.592 244.955C219.644 244.037 219.09 242.787 219.046 241.468V241.233H229.211Z" fill="white"/>
<path d="M217.629 241.233V241.468C217.629 242.815 217.094 244.107 216.142 245.059C215.189 246.012 213.897 246.547 212.55 246.547C211.882 246.548 211.221 246.417 210.605 246.162C209.988 245.907 209.427 245.533 208.955 245.061C208.483 244.59 208.108 244.029 207.852 243.413C207.597 242.796 207.465 242.135 207.465 241.468V241.233H217.629Z" fill="white"/>
<path d="M195.29 272.189C198.175 268.781 201.749 266.02 205.776 264.089C209.803 262.158 214.193 261.1 218.657 260.984C223.122 260.868 227.561 261.697 231.682 263.417C235.804 265.137 239.516 267.708 242.574 270.963C235.815 276.096 227.614 278.975 219.13 279.195C210.645 279.415 202.306 276.965 195.29 272.189Z" fill="#BE5D4D"/>
<path d="M301.696 197.437C301.321 197.438 300.95 197.365 300.604 197.222C300.258 197.079 299.943 196.869 299.679 196.604C299.414 196.339 299.204 196.025 299.061 195.679C298.918 195.332 298.845 194.961 298.845 194.587C298.845 190.973 297.41 187.508 294.855 184.953C292.299 182.397 288.834 180.962 285.22 180.962C281.607 180.962 278.141 182.397 275.586 184.953C273.031 187.508 271.595 190.973 271.595 194.587C271.595 195.343 271.295 196.068 270.76 196.602C270.226 197.137 269.501 197.437 268.745 197.437C267.989 197.437 267.264 197.137 266.729 196.602C266.195 196.068 265.895 195.343 265.895 194.587C265.852 192.023 266.319 189.476 267.271 187.094C268.222 184.713 269.638 182.545 271.436 180.716C273.234 178.888 275.379 177.435 277.744 176.444C280.109 175.453 282.648 174.942 285.212 174.942C287.777 174.942 290.315 175.453 292.681 176.444C295.046 177.435 297.19 178.888 298.988 180.716C300.786 182.545 302.202 184.713 303.153 187.094C304.105 189.476 304.573 192.023 304.53 194.587C304.53 195.34 304.232 196.063 303.701 196.597C303.17 197.131 302.449 197.433 301.696 197.437Z" fill="#2C120D"/>
<path d="M180.558 189.202C180.184 189.203 179.813 189.13 179.467 188.987C179.121 188.844 178.806 188.634 178.541 188.369C178.277 188.104 178.067 187.79 177.924 187.443C177.781 187.097 177.707 186.726 177.708 186.352C177.708 182.738 176.273 179.273 173.717 176.717C171.162 174.162 167.697 172.727 164.083 172.727C160.47 172.727 157.004 174.162 154.449 176.717C151.894 179.273 150.458 182.738 150.458 186.352C150.458 187.108 150.158 187.833 149.623 188.367C149.089 188.902 148.364 189.202 147.608 189.202C146.852 189.202 146.127 188.902 145.592 188.367C145.058 187.833 144.757 187.108 144.757 186.352C144.714 183.788 145.182 181.241 146.134 178.859C147.085 176.478 148.501 174.31 150.299 172.481C152.097 170.652 154.241 169.2 156.607 168.209C158.972 167.218 161.51 166.707 164.075 166.707C166.639 166.707 169.178 167.218 171.543 168.209C173.909 169.2 176.053 170.652 177.851 172.481C179.649 174.31 181.065 176.478 182.016 178.859C182.968 181.241 183.436 183.788 183.392 186.352C183.392 187.105 183.094 187.827 182.563 188.362C182.032 188.896 181.312 189.198 180.558 189.202Z" fill="#2C120D"/>
<path d="M144.512 325.91C182.03 353.394 231.81 362.97 279.487 362.752C308.198 362.616 337.115 358.321 363.564 347.993C412.887 328.728 452.061 287.155 463.016 238.71C465.027 229.805 466.123 220.718 466.286 211.591C471.463 232.546 471.975 254.461 467.223 275.487C456.269 323.964 417.083 365.532 367.766 384.797C341.317 395.152 312.405 399.42 283.694 399.556C236.018 399.779 187.594 388.242 148.72 362.714C133.629 352.789 125.35 342.925 115.229 328.635C106.052 315.691 100.776 298.066 96.8955 283.008C93.5819 270.151 90.1158 251.065 90.1158 242.885C90.3174 243.729 97.9747 291.809 144.512 325.91Z" fill="#F06904"/>
<path d="M500.348 268.761C479.447 268.761 454.416 258.864 450.83 257.403C449.422 256.794 448.309 255.657 447.73 254.237C447.151 252.817 447.151 251.226 447.73 249.806C448.31 248.386 449.423 247.25 450.83 246.64C452.238 246.031 453.828 245.998 455.26 246.547C466.705 251.218 499.405 261.78 512.84 254.749C514.116 254.131 515.229 253.223 516.092 252.098C516.955 250.973 517.544 249.662 517.81 248.269C522.595 226.829 500.294 187.387 491.296 173.997C490.429 172.707 490.109 171.125 490.408 169.599C490.707 168.074 491.6 166.73 492.89 165.862C494.18 164.995 495.762 164.676 497.287 164.975C498.813 165.274 500.157 166.167 501.024 167.457C502.457 169.593 536.1 220.12 529.25 250.842C528.61 253.892 527.293 256.76 525.397 259.234C523.501 261.709 521.074 263.726 518.295 265.137C513.27 267.753 507.019 268.761 500.348 268.761Z" fill="#133441"/>
<path d="M501.841 165.457C501.623 167.092 493.487 180.428 481.78 181.136C474.319 181.55 472.302 176.231 472.302 176.231C472.302 176.231 466.166 177.321 463.708 173.288C461.25 169.255 456.568 154.922 472.313 148.017C482.946 143.373 503.035 156.862 501.841 165.457Z" fill="#133441"/>
<path d="M511.063 265.186C508.656 264.574 506.42 263.422 504.524 261.816C502.629 260.211 501.124 258.195 500.125 255.921C499.989 255.617 499.939 255.282 499.978 254.951L500.343 251.714C500.717 248.394 499.77 245.06 497.706 242.432C495.642 239.805 492.626 238.096 489.312 237.675C487.487 237.443 485.634 237.611 483.88 238.165C482.126 238.72 480.514 239.649 479.154 240.887C477.794 242.125 476.718 243.644 476.002 245.338C475.286 247.032 474.946 248.862 475.006 250.7C475.018 251.11 474.897 251.513 474.661 251.849C474.426 252.185 474.088 252.436 473.698 252.564L466.313 254.962" fill="#133441"/>
<path d="M428.73 173.855C429.987 175.483 431.587 176.813 433.417 177.752C435.967 179.054 439.21 176.896 438.376 173.937C438.231 173.426 438.049 172.927 437.831 172.443C437.778 172.068 437.674 171.701 437.521 171.353C436.27 168.689 434.184 166.506 431.58 165.135C431.01 164.845 430.377 164.701 429.738 164.716C429.099 164.731 428.473 164.905 427.918 165.222C427.235 165.446 426.669 165.929 426.341 166.568C426.014 167.207 425.952 167.949 426.168 168.634C426.223 168.846 426.299 169.053 426.364 169.266C426.636 171.011 427.466 172.621 428.73 173.855Z" fill="#F06904"/>
<path d="M438.087 268.402C436.61 267.693 434.785 267.502 433.498 268.772C432.977 269.273 432.603 269.907 432.419 270.606C432.234 271.305 432.246 272.042 432.452 272.734C432.439 272.95 432.439 273.167 432.452 273.383C432.48 275.05 432.908 276.685 433.7 278.152C434.005 278.722 434.453 279.204 434.999 279.55C435.545 279.897 436.171 280.097 436.818 280.13C437.989 280.174 439.488 279.585 440.044 278.451C440.949 276.788 441.275 274.871 440.97 273.001C440.692 271.41 439.662 269.148 438.087 268.402Z" fill="#F06904"/>
<path d="M388.492 195.181C388.46 195.104 388.432 195.028 388.4 194.946C388.367 194.865 388.367 194.865 388.356 194.827C388.183 194.259 387.866 193.746 387.435 193.339C387.24 193.127 387.016 192.943 386.77 192.794C385.995 192.353 385.078 192.232 384.214 192.456C383.659 192.609 383.154 192.904 382.748 193.311C382.342 193.719 382.047 194.224 381.892 194.777C381.38 196.031 381.99 197.573 382.901 198.5C383.005 198.607 383.116 198.707 383.233 198.8C383.48 199.161 383.811 199.458 384.197 199.665C384.583 199.872 385.013 199.983 385.451 199.988C385.897 199.97 386.333 199.848 386.723 199.631C387.113 199.414 387.446 199.109 387.697 198.74C387.825 198.634 387.941 198.513 388.04 198.38C388.473 197.854 388.707 197.192 388.699 196.511C388.674 196.007 388.584 195.509 388.432 195.028L388.492 195.181Z" fill="#F06904"/>
<path d="M396.945 238.427H396.831C396.251 238.425 395.681 238.575 395.177 238.862C394.673 239.149 394.253 239.562 393.959 240.062C393.672 240.575 393.521 241.154 393.521 241.743C393.521 242.331 393.672 242.91 393.959 243.424C394.308 244.095 394.889 244.616 395.594 244.89H395.626C395.714 244.95 395.795 245.021 395.888 245.076C396.353 245.349 396.883 245.493 397.422 245.493C397.962 245.493 398.491 245.349 398.956 245.076C399.408 244.799 399.782 244.413 400.046 243.954C400.31 243.495 400.454 242.978 400.466 242.449C400.491 241.621 400.292 240.801 399.888 240.078C399.376 239.037 398.068 238.459 396.945 238.427ZM396.983 239.517H396.913H396.82H396.787C396.854 239.515 396.92 239.524 396.983 239.544V239.517ZM396.951 239.517H396.994C397.065 239.517 397.142 239.549 397.245 239.582C397.148 239.565 397.049 239.554 396.951 239.549V239.517Z" fill="#F06904"/>
<path d="M422.598 244.781C422.186 244.387 421.637 244.168 421.067 244.168C420.497 244.168 419.948 244.387 419.536 244.781C419.134 245.12 418.81 245.542 418.587 246.018C418.388 246.46 418.298 246.944 418.325 247.428C418.353 247.911 418.497 248.382 418.745 248.798C418.989 249.196 419.33 249.525 419.737 249.753C420.144 249.981 420.603 250.101 421.07 250.101C421.536 250.101 421.995 249.981 422.402 249.753C422.809 249.525 423.151 249.196 423.394 248.798C423.639 248.38 423.78 247.91 423.808 247.427C423.835 246.944 423.748 246.461 423.552 246.018C423.327 245.542 423.002 245.12 422.598 244.781Z" fill="#F06904"/>
<path d="M453.042 225.085C450.497 225.085 450.492 229.047 453.042 229.047C455.593 229.047 455.62 225.085 453.042 225.085Z" fill="#F06904"/>
<path d="M384.007 157.14C388.329 162.715 393.632 165.86 395.844 164.121C398.057 162.383 397.109 155.777 392.781 150.202C388.454 144.627 382.394 142.245 380.181 143.94C377.968 145.635 379.68 151.57 384.007 157.14Z" fill="#F06904"/>
<path d="M401.283 201.072C405.578 214.207 412.342 224.584 419.928 222.104C427.514 219.624 432.572 206.844 428.277 193.72C423.983 180.597 411.966 172.057 404.39 174.536C396.815 177.016 396.989 187.938 401.283 201.072Z" fill="#F06904"/>
<path d="M187.845 136.119C181.807 129.1 173.473 123.922 164.225 122.592C155.088 121.252 145.79 123.563 138.343 129.023C136.484 130.386 135.558 132.735 136.806 134.877C137.896 136.713 140.79 137.787 142.665 136.413C148.436 132.179 155.358 129.944 162.546 130.931C170.242 131.983 176.809 136.381 181.796 142.169C183.305 143.924 186.297 143.716 187.845 142.169C189.584 140.43 189.36 137.874 187.845 136.119Z" fill="#133441"/>
<path d="M315.969 155.183C309.931 148.164 301.598 142.986 292.349 141.656C283.212 140.317 273.914 142.627 266.467 148.087C264.603 149.455 263.676 151.804 264.93 153.946C266.02 155.783 268.908 156.851 270.783 155.478C276.56 151.243 283.482 149.008 290.67 149.995C298.366 151.052 304.933 155.445 309.92 161.233C311.429 162.988 314.421 162.781 315.969 161.233C317.708 159.494 317.484 156.938 315.969 155.183Z" fill="#133441"/>
</svg>
