<svg width="562" height="562" viewBox="0 0 562 562" fill="none" xmlns="http://www.w3.org/2000/svg">
<g clip-path="url(#clip0)">
<path d="M439.939 348.125C438.592 348.128 437.282 347.68 436.219 346.852C435.155 346.024 434.4 344.865 434.072 343.557C433.744 342.25 433.863 340.871 434.41 339.64C434.957 338.408 435.9 337.395 437.09 336.762C451.752 328.894 491.126 303.795 497.128 282.006C497.564 280.609 497.666 279.129 497.426 277.686C497.186 276.242 496.61 274.875 495.746 273.694C486.911 260.768 452.062 254.586 439.383 253.31C437.854 253.073 436.475 252.259 435.53 251.035C434.585 249.811 434.145 248.271 434.302 246.732C434.46 245.194 435.201 243.774 436.375 242.766C437.548 241.759 439.063 241.24 440.608 241.317C445.846 241.845 492.143 247.066 505.71 266.883C507.562 269.514 508.798 272.527 509.328 275.7C509.858 278.873 509.669 282.125 508.773 285.215C500.18 316.457 445.104 346.192 442.777 347.412C441.905 347.881 440.93 348.126 439.939 348.125Z" fill="#133441"/>
<path d="M428.975 342.41C429.952 341.055 443.817 332.856 454.827 337.846C461.812 341.078 461.082 346.872 461.082 346.872C461.082 346.872 467.202 348.845 467.477 353.712C467.753 358.578 465.1 373.87 447.436 372.539C435.488 371.639 423.748 349.665 428.975 342.41Z" fill="#133441"/>
<path d="M260.094 107.409C262.847 103.228 261.982 96.0683 261.78 91.37C261.505 85.6796 260.784 80.0197 259.622 74.4426C256.199 58.0041 245.01 42.7907 233.657 30.8482C231.184 28.2462 234.781 23.885 237.26 26.5208C249.865 39.784 261.201 55.801 265.236 73.9311C266.656 80.6697 267.418 87.5302 267.512 94.416C267.636 99.9405 267.579 106.246 264.438 111.012C262.437 114.041 258.132 110.405 260.11 107.404L260.094 107.409Z" fill="#133441"/>
<path d="M262.561 110.461C224.631 120.392 208.912 105.915 206.108 103.228C203.135 100.379 197.318 95.2758 192.283 83.0355C188.444 73.6894 185.797 62.3033 188.478 58.7627L262.808 110.411L262.561 110.461Z" fill="#8CB201"/>
<path d="M188.478 58.7627C188.75 58.3934 189.112 58.0995 189.529 57.9085C209.795 48.7816 227.183 52.8224 244.537 66.3385C261.892 79.8546 263.258 110.304 263.258 110.304L262.808 110.382L188.478 58.7627Z" fill="#9DC232"/>
<path opacity="0.1" d="M281 562C414.943 562 523.525 553.777 523.525 543.634C523.525 533.491 414.943 525.268 281 525.268C147.057 525.268 38.4745 533.491 38.4745 543.634C38.4745 553.777 147.057 562 281 562Z" fill="black"/>
<path d="M258.385 391.978L249.668 538.076L220.355 535.333L238.906 390.152L258.385 391.978Z" fill="#192A37"/>
<path d="M224.176 505.452L220.36 535.333L249.668 538.076L251.619 505.452H224.176Z" fill="#CF0303"/>
<path d="M204.619 521.609L236.299 523.295C240.022 523.491 243.528 525.108 246.095 527.813C248.661 530.519 250.091 534.105 250.09 537.834V543.634H191.406L204.619 521.609Z" fill="#CF0303"/>
<path d="M187.899 543.6C187.899 531.438 192.305 521.575 203.601 521.575C214.898 521.575 219.304 531.438 219.304 543.6H187.899Z" fill="white"/>
<path d="M235.32 508.94L222.59 506.362C220.969 506.033 219.388 507.082 219.06 508.703C218.731 510.325 219.779 511.905 221.401 512.234L234.13 514.812C235.752 515.14 237.332 514.092 237.661 512.471C237.989 510.849 236.941 509.269 235.32 508.94Z" fill="white"/>
<path d="M232.075 518.927L219.346 516.349C217.724 516.021 216.144 517.069 215.815 518.69C215.487 520.312 216.535 521.892 218.157 522.221L230.886 524.799C232.507 525.127 234.088 524.079 234.416 522.458C234.745 520.836 233.697 519.256 232.075 518.927Z" fill="white"/>
<path d="M322.818 390.152L341.37 535.333L312.056 538.076L303.339 391.978L322.818 390.152Z" fill="#192A37"/>
<path d="M310.112 505.452L312.056 538.076L341.37 535.333L337.548 505.452H310.112Z" fill="#CF0303"/>
<path d="M357.106 521.609L325.426 523.295C321.702 523.49 318.194 525.106 315.626 527.812C313.059 530.517 311.628 534.104 311.629 537.834V543.634H370.319L357.106 521.609Z" fill="#CF0303"/>
<path d="M373.826 543.6C373.826 531.438 369.419 521.575 358.123 521.575C346.827 521.575 342.427 531.438 342.427 543.6H373.826Z" fill="white"/>
<path d="M327.663 514.79L340.392 512.211C342.014 511.883 343.062 510.302 342.733 508.681C342.405 507.059 340.824 506.011 339.203 506.34L326.473 508.918C324.852 509.246 323.804 510.827 324.132 512.448C324.461 514.07 326.041 515.118 327.663 514.79Z" fill="white"/>
<path d="M330.91 524.783L343.639 522.204C345.261 521.876 346.309 520.295 345.98 518.674C345.652 517.052 344.071 516.004 342.45 516.333L329.72 518.911C328.099 519.239 327.051 520.82 327.379 522.441C327.708 524.063 329.288 525.111 330.91 524.783Z" fill="white"/>
<path d="M463.852 197.875C451.73 167.673 438.562 149.425 398.79 124.562C325.038 82.7039 149.666 100.244 103.228 171.326C81.3495 204.815 73.0544 245.982 81.7148 284.288C93.0054 334.233 133.368 377.063 184.184 396.913C211.436 407.557 241.222 411.974 270.805 412.087C319.924 412.317 369.819 400.431 409.872 374.129C425.4 363.929 437.478 351.981 446.273 336.205C463.875 304.655 480.353 239.002 463.852 197.875Z" fill="#FF8804"/>
<path d="M264.921 105.746C265.264 38.3396 296.264 18.6471 301.974 15.174C308.021 11.4985 319.075 4.10259 341.645 1.17457C358.865 -1.07343 378.957 -0.404652 383.638 5.61999L264.887 106.179L264.921 105.746Z" fill="#8CB201"/>
<path d="M383.638 5.62C384.135 6.23216 384.466 6.96177 384.599 7.73874C390.781 45.4602 376.349 72.5036 346.153 95.3601C315.956 118.217 264.826 106.954 264.826 106.954L264.887 106.173L383.638 5.62Z" fill="#9DC232"/>
<path d="M414.194 336.267C375.54 364.586 324.274 374.483 275.127 374.23C245.549 374.09 215.757 369.667 188.506 359.023C137.69 339.173 97.3159 296.343 86.0254 246.398C83.9626 237.224 82.844 227.863 82.6871 218.461C77.3481 240.047 76.8198 262.628 81.7148 284.293C93.0054 334.238 133.368 377.068 184.184 396.918C211.436 407.562 241.222 411.98 270.805 412.092C319.924 412.323 369.819 400.436 409.872 374.135C425.4 363.934 433.909 353.773 444.351 339.043C453.809 325.707 459.244 307.571 463.24 292.038C466.657 278.791 470.231 259.127 470.231 250.697C470.018 251.602 462.133 301.137 414.194 336.267Z" fill="#F06904"/>
<path d="M129.299 353.773C128.909 353.772 128.519 353.734 128.136 353.661C125.528 353.15 64.2141 340.842 46.8371 313.489C45.072 310.796 43.9361 307.74 43.5139 304.548C43.0916 301.356 43.3938 298.109 44.398 295.05C51.5747 272.137 94.3092 253.591 99.1593 251.557C100.625 250.992 102.253 251.021 103.698 251.636C105.143 252.251 106.292 253.405 106.9 254.853C107.509 256.3 107.53 257.928 106.959 259.391C106.388 260.855 105.269 262.038 103.841 262.69C92.0949 267.636 60.5667 283.737 55.9134 298.658C55.4378 300.04 55.2917 301.513 55.4869 302.961C55.682 304.409 56.213 305.792 57.0374 306.998C69.1766 326.106 114.153 338.594 130.468 341.792C131.936 342.086 133.242 342.915 134.133 344.117C135.025 345.319 135.438 346.81 135.293 348.3C135.149 349.79 134.456 351.173 133.349 352.181C132.243 353.189 130.802 353.75 129.305 353.757L129.299 353.773Z" fill="#133441"/>
<path d="M139.871 344.838C138.539 343.826 122.881 340.016 113.839 348.03C108.101 353.161 110.495 358.494 110.495 358.494C110.495 358.494 105.218 362.164 106.375 366.924C107.533 371.684 114.552 385.504 131.053 379.063C142.186 374.691 146.997 350.244 139.871 344.838Z" fill="#133441"/>
<path d="M121.353 179.587C120.058 181.264 118.41 182.634 116.525 183.6C113.895 184.943 110.557 182.723 111.411 179.666C111.565 179.143 111.753 178.63 111.973 178.132C112.029 177.744 112.139 177.365 112.299 177.008C113.585 174.261 115.737 172.012 118.425 170.606C119.012 170.306 119.664 170.157 120.324 170.172C120.983 170.186 121.628 170.365 122.201 170.691C122.905 170.921 123.489 171.42 123.827 172.079C124.165 172.738 124.229 173.503 124.005 174.209C123.949 174.428 123.87 174.642 123.803 174.855C123.519 176.656 122.66 178.316 121.353 179.587Z" fill="#F06904"/>
<path d="M111.709 277.021C113.237 276.29 115.114 276.094 116.441 277.403C116.978 277.919 117.363 278.572 117.553 279.292C117.744 280.011 117.732 280.77 117.52 281.483C117.534 281.706 117.534 281.929 117.52 282.152C117.491 283.869 117.049 285.554 116.233 287.064C115.917 287.654 115.454 288.152 114.889 288.509C114.323 288.867 113.675 289.072 113.007 289.104C111.799 289.149 110.259 288.542 109.686 287.373C108.757 285.668 108.423 283.703 108.736 281.787C109.028 280.095 110.09 277.791 111.709 277.021Z" fill="#F06904"/>
<path d="M162.811 201.584C162.84 201.505 162.873 201.421 162.907 201.342C162.928 201.292 162.952 201.243 162.98 201.196C163.155 200.611 163.482 200.083 163.93 199.667C164.132 199.45 164.362 199.261 164.615 199.105C165.415 198.651 166.361 198.526 167.251 198.757C167.822 198.915 168.341 199.218 168.76 199.637C169.179 200.055 169.482 200.575 169.64 201.145C170.174 202.444 169.544 204.029 168.606 204.984C168.498 205.094 168.384 205.198 168.263 205.293C168.007 205.665 167.666 205.97 167.268 206.182C166.87 206.395 166.427 206.508 165.975 206.513C165.516 206.496 165.067 206.371 164.665 206.148C164.262 205.926 163.918 205.612 163.66 205.231C163.528 205.107 163.411 204.967 163.312 204.815C162.866 204.274 162.623 203.594 162.626 202.893C162.651 202.372 162.746 201.856 162.907 201.359C162.862 201.466 162.834 201.522 162.811 201.584Z" fill="#F06904"/>
<path d="M151.077 247.876C150.658 248.618 150.452 249.462 150.481 250.315C150.494 250.86 150.643 251.392 150.914 251.865C151.185 252.338 151.569 252.736 152.032 253.024C152.512 253.304 153.058 253.451 153.614 253.451C154.17 253.451 154.716 253.304 155.196 253.024C155.292 252.967 155.376 252.894 155.466 252.833H155.5C156.226 252.549 156.825 252.012 157.186 251.321C157.48 250.791 157.634 250.196 157.634 249.59C157.634 248.984 157.48 248.388 157.186 247.859C156.882 247.344 156.449 246.917 155.93 246.621C155.41 246.325 154.822 246.171 154.224 246.173H154.106C152.948 246.156 151.594 246.763 151.077 247.876ZM154.263 247.263H154.235H154.134H154.061C154.129 247.259 154.197 247.265 154.263 247.28V247.263ZM153.791 247.359L154.05 247.286H154.095C153.991 247.298 153.889 247.323 153.791 247.359Z" fill="#F06904"/>
<path d="M127.67 252.686C128.09 252.273 128.656 252.041 129.246 252.041C129.836 252.041 130.402 252.273 130.822 252.686C131.242 253.031 131.577 253.467 131.8 253.962C132.007 254.416 132.1 254.914 132.073 255.412C132.046 255.91 131.898 256.394 131.643 256.823C131.392 257.233 131.04 257.572 130.62 257.807C130.2 258.043 129.727 258.166 129.246 258.166C128.765 258.166 128.292 258.043 127.872 257.807C127.452 257.572 127.1 257.233 126.849 256.823C126.597 256.393 126.451 255.909 126.423 255.412C126.396 254.914 126.488 254.417 126.692 253.962C126.92 253.47 127.254 253.035 127.67 252.686Z" fill="#F06904"/>
<path d="M96.3043 232.365C98.9289 232.365 98.9345 236.45 96.3043 236.45C93.6742 236.45 93.6742 232.365 96.3043 232.365Z" fill="#F06904"/>
<path d="M167.431 162.418C162.98 168.156 157.517 171.376 155.236 169.606C152.954 167.836 153.932 161.007 158.388 155.269C162.845 149.531 169.066 147.042 171.371 148.812C173.675 150.582 171.888 156.646 167.431 162.418Z" fill="#F06904"/>
<path d="M149.632 207.648C145.21 221.181 138.252 231.876 130.423 229.296C122.595 226.716 117.396 213.56 121.819 200.072C126.242 186.584 138.623 177.755 146.44 180.312C154.258 182.869 154.055 194.12 149.632 207.648Z" fill="#F06904"/>
<path d="M375.77 146.963C380.907 140.995 387.673 136.47 395.603 135.38C403.01 134.363 410.136 136.673 416.088 141.034C418.01 142.439 421.005 141.354 422.118 139.449C423.428 137.201 422.467 134.829 420.539 133.419C412.867 127.79 403.286 125.409 393.872 126.793C384.318 128.164 375.759 133.492 369.537 140.73C367.981 142.534 367.762 145.193 369.537 146.963C371.122 148.553 374.208 148.778 375.77 146.963Z" fill="#133441"/>
<path d="M243.762 166.605C248.899 160.636 255.665 156.112 263.595 155.028C271.002 154.011 278.134 156.315 284.085 160.648C286.007 162.058 289.003 160.974 290.116 159.069C291.425 156.821 290.458 154.449 288.536 153.033C280.864 147.423 271.295 145.054 261.892 146.435C252.338 147.812 243.779 153.134 237.552 160.372C236.001 162.176 235.781 164.835 237.552 166.605C239.142 168.195 242.228 168.42 243.784 166.605H243.762Z" fill="#133441"/>
<path d="M266.09 211.694C274.222 211.694 280.815 205.102 280.815 196.97C280.815 188.838 274.222 182.245 266.09 182.245C257.958 182.245 251.366 188.838 251.366 196.97C251.366 205.102 257.958 211.694 266.09 211.694Z" fill="#133441"/>
<path d="M260.06 196.503C262.645 196.503 264.741 194.407 264.741 191.822C264.741 189.236 262.645 187.14 260.06 187.14C257.474 187.14 255.378 189.236 255.378 191.822C255.378 194.407 257.474 196.503 260.06 196.503Z" fill="white"/>
<path d="M262.246 203.691C263.627 203.691 264.747 202.572 264.747 201.19C264.747 199.809 263.627 198.689 262.246 198.689C260.865 198.689 259.745 199.809 259.745 201.19C259.745 202.572 260.865 203.691 262.246 203.691Z" fill="white"/>
<path d="M394.013 196.97C402.145 196.97 408.737 190.377 408.737 182.245C408.737 174.113 402.145 167.521 394.013 167.521C385.881 167.521 379.288 174.113 379.288 182.245C379.288 190.377 385.881 196.97 394.013 196.97Z" fill="#133441"/>
<path d="M387.988 181.779C390.573 181.779 392.669 179.683 392.669 177.097C392.669 174.512 390.573 172.416 387.988 172.416C385.402 172.416 383.306 174.512 383.306 177.097C383.306 179.683 385.402 181.779 387.988 181.779Z" fill="white"/>
<path d="M390.168 188.961C391.55 188.961 392.669 187.842 392.669 186.46C392.669 185.079 391.55 183.959 390.168 183.959C388.787 183.959 387.668 185.079 387.668 186.46C387.668 187.842 388.787 188.961 390.168 188.961Z" fill="white"/>
<path d="M372.797 262.623C349.499 269.452 324.584 268.264 302.041 259.251C299.411 258.2 298.265 262.465 300.872 263.505C324.179 272.75 349.907 273.937 373.966 266.877C376.686 266.073 375.528 261.819 372.797 262.623Z" fill="#AB1700"/>
</g>
<defs>
<clipPath id="clip0">
<rect width="562" height="562" fill="white"/>
</clipPath>
</defs>
</svg>
