<svg width="225" height="56" viewBox="0 0 225 56" fill="none" xmlns="http://www.w3.org/2000/svg">
<path d="M71.5089 22.4138C66.297 22.4138 62 25.0475 62 32.394C62 39.7406 65.9644 42.7901 71.5366 42.7901C77.802 42.7901 80.5188 37.7168 80.5188 32.4495C80.5188 26.0455 76.7208 22.4138 71.5089 22.4138ZM71.4535 27.5703C73.7822 27.5703 74.7248 29.7881 74.7248 32.6435C74.7248 36.1089 73.2 37.2455 71.4812 37.2455C69.7347 37.2455 67.7386 35.9148 67.7386 32.6713C67.7386 29.7049 68.6812 27.5703 71.4535 27.5703Z" fill="#FF841A"/>
<path d="M96.1978 30.0653C96.2255 29.8713 94.3403 27.9029 91.8453 27.9029C89.4889 27.9029 88.5463 29.2336 88.5463 29.2336L87.6592 27.3485C87.6592 27.3485 82.0592 28.1802 82.0592 28.3188C82.0592 28.4574 82.475 31.9227 82.5027 31.9227C82.5582 31.9227 84.1106 31.7841 84.1661 31.8396L84.1384 38.3544L82.3087 38.4653C82.2809 40.2396 82.5027 42.2911 82.5027 42.2911C82.475 42.2911 91.7067 42.3742 91.8453 42.2356L91.7899 38.6317L88.9621 38.2713C88.9621 38.2713 88.7403 37.4119 88.7403 35.6099C88.7403 33.9465 89.7106 32.8099 91.1522 32.8099C92.1225 32.8099 92.8988 33.5584 93.2592 33.9188C93.3423 34.0019 96.1423 30.5643 96.1978 30.0653Z" fill="#FF841A"/>
<path d="M102.344 28.3188C99.5161 28.3188 96.1339 29.8713 96.1339 35.1386C96.1339 40.8495 99.7101 42.5406 102.261 42.5406C105.088 42.5406 106.197 40.7109 106.197 40.7109C106.197 40.7109 106.474 42.0416 106.474 42.1247C106.474 42.2079 112.684 42.3188 112.768 42.3188C112.878 42.3188 112.878 38.6317 112.823 38.4376C112.795 38.2435 110.522 38.2713 110.494 38.2713C110.494 38.2713 110.356 32.4772 110.439 32.4218C110.494 32.3663 112.435 31.9505 112.49 31.9505C112.518 31.9505 112.324 28.4019 112.324 28.2633C112.324 28.1247 106.447 28.3188 106.447 28.3188V29.7049C106.447 29.7049 104.7 28.3188 102.344 28.3188ZM103.342 32.5881C104.478 32.5881 105.393 33.8079 105.393 35.2772C105.393 36.8297 104.478 37.8554 103.231 37.8554C102.122 37.8554 101.041 36.8297 101.041 35.2218C101.041 33.5584 101.956 32.5881 103.342 32.5881Z" fill="#FF841A"/>
<path d="M129.832 34.8336C129.832 29.0673 126.976 27.7366 124.149 27.7366C121.792 27.7366 120.517 29.4831 120.517 29.4831L119.63 27.4871C119.63 27.4871 114.141 28.0693 114.141 28.2079C114.141 28.3465 114.557 32.0891 114.584 32.0891C114.64 32.0891 116.192 31.9505 116.248 32.0059L116.22 38.6317L114.39 38.7425C114.362 40.5168 114.584 42.2911 114.584 42.2911C114.557 42.2911 122.402 42.3742 122.541 42.2356L122.485 38.9089L120.822 38.5485L120.794 35.499C120.794 33.8356 121.792 32.699 122.873 32.699C124.204 32.699 124.98 33.6416 124.98 35.499L125.008 38.4653L123.65 38.7148C123.594 39.1861 123.788 42.2356 123.788 42.2356L130.968 42.3188C131.162 41.4317 130.968 38.7148 130.968 38.7148L129.804 38.4653L129.832 34.8336Z" fill="#FF841A"/>
<path d="M139.161 32.394C140.298 32.394 141.213 33.6138 141.213 35.0831C141.213 36.6356 140.298 37.6614 139.05 37.6614C137.942 37.6614 136.86 36.6356 136.86 35.0277C136.86 33.3643 137.775 32.394 139.161 32.394ZM146.452 32.7544C146.508 32.699 148.171 32.2831 148.227 32.2831C148.254 32.2831 148.06 28.1802 148.06 28.0416C148.06 27.9029 142.183 28.097 142.183 28.097V29.4831C142.183 29.4831 140.437 28.097 138.08 28.097C135.252 28.097 131.843 29.6495 131.843 34.9168C131.843 40.6277 135.447 42.3188 137.997 42.3188C140.825 42.3188 141.823 40.9049 141.823 40.9049C142.211 41.792 141.795 44.3148 139.605 44.3148C137.581 44.3148 136.472 43.3445 136.472 43.3445L134.892 47.3366C134.892 47.3366 136.167 49 139.965 49C145.482 49 146.868 44.4534 146.868 42.097C146.868 37.8 146.563 34.3069 146.452 32.7544Z" fill="#FF841A"/>
<path d="M156.426 27.8198C152.711 27.8198 149.329 29.8435 149.329 34.8891C149.329 39.9069 153.626 43.1227 160.723 42.596C160.723 42.596 161.278 39.9623 161.333 38.1326C159.559 38.1326 156.814 38.1049 156.426 37.6336L161.777 34.695L162.525 31.8673C162.442 30.6752 159.781 27.8198 156.426 27.8198ZM156.482 31.5901C157.036 31.5901 157.563 32.0336 157.674 32.3109L154.291 34.3901C153.792 33.2257 154.541 31.5901 156.482 31.5901Z" fill="#FF841A"/>
<path d="M175.598 22.5247L175.293 24.1604C175.293 24.1604 174.129 22.996 172.022 22.996C168.141 22.996 163.954 25.5742 163.954 32.5881C163.954 39.297 168.667 42.6515 172.992 42.6515C178.259 42.6515 180.006 38.5485 180.006 38.5485C180.006 38.5485 177.622 36.4138 176.374 35.1109C176.097 35.499 174.766 36.996 172.992 36.996C171.606 36.996 169.638 35.8594 169.638 32.5881C169.638 29.5109 170.857 27.9861 172.299 27.9861C174.794 27.9861 175.348 30.8416 175.348 30.8416L179.812 30.2871C179.812 30.2871 180.144 23.5227 179.95 23.3841C178.758 22.6356 175.598 22.5802 175.598 22.5247Z" fill="#FF841A"/>
<path d="M188.133 28.0693C184.196 28.0693 180.952 29.9821 180.952 35.3049C180.952 40.6554 183.946 42.8455 188.16 42.8455C192.873 42.8455 194.925 39.1861 194.925 35.3604C194.925 30.7029 192.069 28.0693 188.133 28.0693ZM188.243 32.6435C189.602 32.6435 190.156 34.0851 190.156 35.499C190.156 37.2732 189.325 38.1049 188.243 38.1049C187.218 38.1049 185.998 37.1623 185.998 35.499C185.998 34.0297 186.552 32.6435 188.243 32.6435Z" fill="#FF841A"/>
<path d="M204.179 29.3445C202.294 28.901 196.445 29.1782 196.445 29.3168C196.445 29.4554 196.86 33.0871 196.888 33.0871C196.944 33.0871 199.051 32.9485 199.106 33.0039L199.078 38.6317L196.694 38.7425C196.666 40.5168 196.888 42.2911 196.888 42.2911C196.86 42.2911 206.369 42.3742 206.508 42.2356L206.453 38.9089L204.179 38.5485V29.3445ZM201.185 21C199.716 21 198.441 22.1089 198.468 23.8831C198.524 25.6297 199.577 26.7109 201.49 26.7109C203.375 26.7109 204.068 25.2416 204.068 23.7445C204.068 22.2752 202.682 21 201.185 21Z" fill="#FF841A"/>
<path d="M223.586 34.8336C223.586 29.0673 220.73 27.7366 217.902 27.7366C215.546 27.7366 214.271 29.4831 214.271 29.4831L213.384 27.4871C213.384 27.4871 207.895 28.0693 207.895 28.2079C207.895 28.3465 208.31 32.0891 208.338 32.0891C208.394 32.0891 209.946 31.9505 210.001 32.0059L209.974 38.6317L208.144 38.7425C208.116 40.5168 208.338 42.2911 208.338 42.2911C208.31 42.2911 216.156 42.3742 216.295 42.2356L216.239 38.9089L214.576 38.5485L214.548 35.499C214.548 33.8356 215.546 32.699 216.627 32.699C217.958 32.699 218.734 33.6416 218.734 35.499L218.762 38.4653L217.403 38.7148C217.348 39.1861 217.542 42.2356 217.542 42.2356L224.722 42.3188C224.916 41.4317 224.722 38.7148 224.722 38.7148L223.558 38.4653L223.586 34.8336Z" fill="#FF841A"/>
<g clip-path="url(#clip0)">
<path d="M28.8251 13.7625C29.271 13.2137 29.2385 12.2046 29.2665 11.5477C29.2999 10.7511 29.2697 9.95305 29.1761 9.161C28.8989 6.82692 27.4995 4.569 26.0377 2.7602C25.7187 2.3682 26.2835 1.80373 26.6059 2.20021C28.2295 4.20668 29.6358 6.58108 29.9788 9.1582C30.1051 10.1102 30.1062 11.0868 30.0417 12.0422C29.9896 12.8139 29.901 13.692 29.3928 14.3175C29.0698 14.7145 28.5033 14.154 28.8211 13.7608L28.8251 13.7625Z" fill="#033541"/>
<path d="M29.0264 14.5147C23.5029 15.4252 21.4501 13.211 21.0854 12.8011C20.6989 12.3676 19.9369 11.5836 19.3766 9.81403C18.9496 8.46387 18.7181 6.84603 19.1445 6.38403L29.0618 14.5113L29.0264 14.5147Z" fill="#7BAD23"/>
<path d="M19.1445 6.38402C19.1878 6.33583 19.2429 6.29922 19.3046 6.27762C22.3053 5.25842 24.7246 6.03906 27.0221 8.1441C29.3196 10.2491 29.127 14.504 29.127 14.504L29.0618 14.5096L19.1445 6.38402Z" fill="#8CBD40"/>
<path d="M28.5834 56.5074C40.566 56.5074 50.2799 46.9918 50.2799 35.2537C50.2799 23.5156 40.566 14 28.5834 14C16.6008 14 6.88696 23.5156 6.88696 35.2537C6.88696 46.9918 16.6008 56.5074 28.5834 56.5074Z" fill="#FF841A"/>
<path d="M11.1263 24.1803C10.9895 24.3537 10.8154 24.4955 10.6164 24.5958C10.3386 24.7341 9.98756 24.5045 10.0762 24.1887C10.0916 24.1346 10.1107 24.0817 10.1333 24.0302C10.1393 23.9905 10.1508 23.9519 10.1676 23.9154C10.3038 23.6313 10.5311 23.3987 10.8148 23.2529C10.877 23.2218 10.9462 23.2063 11.0161 23.208C11.0859 23.2096 11.1543 23.2284 11.2149 23.2624C11.2893 23.286 11.351 23.3375 11.3867 23.4056C11.4224 23.4738 11.4291 23.5529 11.4053 23.6259C11.3996 23.6488 11.391 23.6707 11.3841 23.6931C11.3533 23.8782 11.263 24.0489 11.1263 24.1803Z" fill="#FF6713"/>
<path d="M10.1081 34.2619C10.2695 34.1869 10.4682 34.1662 10.6084 34.3017C10.6655 34.3549 10.7064 34.4225 10.7266 34.497C10.7468 34.5715 10.7455 34.65 10.7229 34.7239C10.7243 34.7468 10.7243 34.7698 10.7229 34.7928C10.7198 34.9705 10.6731 35.1449 10.5867 35.3012C10.5531 35.3626 10.5038 35.4144 10.4436 35.4514C10.3833 35.4884 10.3142 35.5094 10.2432 35.5123C10.1155 35.5168 9.95233 35.4519 9.89165 35.3331C9.79343 35.1568 9.75799 34.9535 9.79089 34.7552C9.82467 34.5805 9.93688 34.342 10.1081 34.2619Z" fill="#FF6713"/>
<path d="M15.5054 26.4561L15.5157 26.4309C15.5157 26.427 15.5191 26.4225 15.5208 26.418C15.5393 26.3575 15.5739 26.3028 15.621 26.2595C15.6427 26.2379 15.6671 26.2191 15.6937 26.2035C15.7784 26.1566 15.8784 26.144 15.9725 26.1683C16.0329 26.1845 16.088 26.2158 16.1323 26.2591C16.1766 26.3024 16.2088 26.3562 16.2255 26.4152C16.2828 26.5491 16.2146 26.7137 16.1156 26.8123C16.1042 26.8235 16.0921 26.8341 16.0795 26.8442C16.0526 26.8827 16.0166 26.9143 15.9746 26.9363C15.9325 26.9584 15.8857 26.9702 15.838 26.9707C15.7894 26.9688 15.7419 26.9558 15.6994 26.9328C15.6568 26.9097 15.6204 26.8773 15.5929 26.838C15.5787 26.8251 15.566 26.8107 15.5552 26.7949C15.5082 26.7387 15.4829 26.6681 15.4836 26.5955C15.486 26.5419 15.4958 26.4887 15.5128 26.4376L15.5054 26.4561Z" fill="#FF6713"/>
<path d="M14.2661 31.248C14.2218 31.3249 14.2 31.4123 14.2031 31.5006C14.2046 31.5569 14.2204 31.612 14.249 31.6609C14.2777 31.7098 14.3184 31.7509 14.3674 31.7806C14.4182 31.8097 14.476 31.8251 14.5349 31.8251C14.5937 31.8251 14.6515 31.8097 14.7023 31.7806C14.712 31.7745 14.7214 31.768 14.7304 31.761H14.7344C14.8108 31.7312 14.8738 31.6755 14.9118 31.6042C14.9431 31.5495 14.9595 31.4879 14.9595 31.4252C14.9595 31.3626 14.9431 31.301 14.9118 31.2463C14.8799 31.1928 14.8342 31.1484 14.7793 31.1175C14.7243 31.0867 14.6621 31.0704 14.5987 31.0705H14.5861C14.4636 31.0699 14.321 31.1315 14.2661 31.248ZM14.6038 31.1847H14.5998H14.5901H14.5821C14.5892 31.1832 14.5966 31.1826 14.6038 31.183V31.1847ZM14.5535 31.1942C14.5625 31.1914 14.5716 31.1891 14.581 31.1875H14.5855C14.5747 31.1881 14.564 31.1896 14.5535 31.192V31.1942Z" fill="#FF6713"/>
<path d="M11.7937 31.7442C11.8386 31.7021 11.8984 31.6787 11.9606 31.6787C12.0227 31.6787 12.0825 31.7021 12.1275 31.7442C12.1714 31.7801 12.2068 31.825 12.2311 31.8758C12.2528 31.9229 12.2626 31.9745 12.2596 32.0262C12.2566 32.0779 12.2409 32.1281 12.2139 32.1726C12.1876 32.2152 12.1504 32.2505 12.106 32.275C12.0616 32.2995 12.0115 32.3123 11.9606 32.3123C11.9096 32.3123 11.8595 32.2995 11.8151 32.275C11.7708 32.2505 11.7336 32.2152 11.7072 32.1726C11.6805 32.128 11.665 32.0778 11.662 32.0262C11.659 31.9746 11.6686 31.923 11.6901 31.8758C11.7145 31.8251 11.7498 31.7802 11.7937 31.7442Z" fill="#FF6713"/>
<path d="M8.48046 29.6414C8.75812 29.6414 8.75869 30.0636 8.48046 30.0636C8.20223 30.0636 8.20223 29.6414 8.48046 29.6414Z" fill="#FF6713"/>
<path d="M15.9941 22.4C15.5236 22.9942 14.9462 23.3274 14.7055 23.1443C14.4649 22.9611 14.5678 22.2544 15.0388 21.6603C15.5099 21.0661 16.169 20.8096 16.4108 20.9927C16.6527 21.1759 16.464 21.8064 15.9941 22.4Z" fill="#FF6713"/>
<path d="M14.1133 27.0839C13.6463 28.4839 12.9128 29.5904 12.0839 29.3239C11.255 29.0573 10.7085 27.6999 11.1755 26.2999C11.6426 24.8998 12.9477 23.991 13.7766 24.2553C14.6055 24.5196 14.581 25.6839 14.1133 27.0839Z" fill="#FF6713"/>
<path d="M22.7831 35.784C22.8713 37.2324 23.5207 38.5931 24.5988 39.5881C25.6768 40.5831 27.1021 41.1372 28.5833 41.1372C30.0645 41.1372 31.4897 40.5831 32.5678 39.5881C33.6459 38.5931 34.2953 37.2324 34.3834 35.784H22.7831Z" fill="white"/>
<path d="M29.6123 13.6316C30.5172 4.24037 35.1814 1.88277 36.0378 1.47117C36.945 1.03493 38.6103 0.141726 41.8608 0.0151663C44.3401 -0.0811537 47.1899 0.261006 47.7798 1.15981L29.6008 13.6909L29.6123 13.6316Z" fill="#7BAD23"/>
<path d="M47.7798 1.1604C47.8425 1.25203 47.8801 1.35789 47.889 1.46784C48.2857 6.80183 45.8882 10.3914 41.3006 13.1993C36.7129 16.0071 29.5814 13.799 29.5814 13.799L29.6003 13.6915L47.7798 1.1604Z" fill="#8CBD40"/>
<path d="M19.798 34.7239C20.8108 34.7239 21.6319 33.9196 21.6319 32.9274C21.6319 31.9353 20.8108 31.131 19.798 31.131C18.7851 31.131 17.9641 31.9353 17.9641 32.9274C17.9641 33.9196 18.7851 34.7239 19.798 34.7239Z" fill="#033541"/>
<path d="M19.0479 32.8709C19.37 32.8709 19.631 32.6152 19.631 32.2997C19.631 31.9842 19.37 31.7285 19.0479 31.7285C18.7259 31.7285 18.4648 31.9842 18.4648 32.2997C18.4648 32.6152 18.7259 32.8709 19.0479 32.8709Z" fill="white"/>
<path d="M19.3199 33.7473C19.4923 33.7473 19.632 33.6106 19.632 33.4421C19.632 33.2735 19.4923 33.1369 19.3199 33.1369C19.1476 33.1369 19.0079 33.2735 19.0079 33.4421C19.0079 33.6106 19.1476 33.7473 19.3199 33.7473Z" fill="white"/>
<path d="M37.3686 34.7239C38.3815 34.7239 39.2025 33.9196 39.2025 32.9274C39.2025 31.9353 38.3815 31.131 37.3686 31.131C36.3558 31.131 35.5347 31.9353 35.5347 32.9274C35.5347 33.9196 36.3558 34.7239 37.3686 34.7239Z" fill="#033541"/>
<path d="M36.6181 32.8709C36.9401 32.8709 37.2012 32.6152 37.2012 32.2997C37.2012 31.9842 36.9401 31.7285 36.6181 31.7285C36.296 31.7285 36.035 31.9842 36.035 32.2997C36.035 32.6152 36.296 32.8709 36.6181 32.8709Z" fill="white"/>
<path d="M36.8906 33.7473C37.0629 33.7473 37.2026 33.6106 37.2026 33.4421C37.2026 33.2735 37.0629 33.1369 36.8906 33.1369C36.7183 33.1369 36.5786 33.2735 36.5786 33.4421C36.5786 33.6106 36.7183 33.7473 36.8906 33.7473Z" fill="white"/>
</g>
<defs>
<clipPath id="clip0">
<rect width="57.1666" height="56" fill="white"/>
</clipPath>
</defs>
</svg>
