<svg width="256" height="56" viewBox="0 0 256 56" fill="none" xmlns="http://www.w3.org/2000/svg">
<path d="M71.957 21.1609C66.4995 21.1609 62 23.9187 62 31.6115C62 39.3042 66.1512 42.4974 71.9861 42.4974C78.5467 42.4974 81.3916 37.1851 81.3916 31.6695C81.3916 24.9638 77.4145 21.1609 71.957 21.1609ZM71.899 26.5604C74.3374 26.5604 75.3244 28.8827 75.3244 31.8727C75.3244 35.5014 73.7278 36.6916 71.928 36.6916C70.0992 36.6916 68.0091 35.2982 68.0091 31.9018C68.0091 28.7956 68.9961 26.5604 71.899 26.5604Z" fill="#FF841A"/>
<path d="M97.8094 29.173C97.8385 28.9698 95.8645 26.9087 93.2518 26.9087C90.7843 26.9087 89.7973 28.3021 89.7973 28.3021L88.8684 26.3281C88.8684 26.3281 83.0045 27.199 83.0045 27.3442C83.0045 27.4893 83.4399 31.118 83.469 31.118C83.527 31.118 85.1527 30.9728 85.2107 31.0309L85.1817 37.8528L83.2658 37.9689C83.2367 39.8267 83.469 41.9749 83.469 41.9749C83.4399 41.9749 93.1067 42.062 93.2518 41.9169L93.1938 38.143L90.2328 37.7657C90.2328 37.7657 90.0006 36.8658 90.0006 34.9789C90.0006 33.2371 91.0166 32.0469 92.5261 32.0469C93.5421 32.0469 94.3549 32.8307 94.7323 33.2081C94.8194 33.2952 97.7514 29.6955 97.8094 29.173Z" fill="#FF841A"/>
<path d="M104.245 27.3442C101.284 27.3442 97.7425 28.9698 97.7425 34.4854C97.7425 40.4654 101.487 42.2362 104.158 42.2362C107.119 42.2362 108.28 40.3202 108.28 40.3202C108.28 40.3202 108.57 41.7137 108.57 41.8007C108.57 41.8878 115.073 42.0039 115.16 42.0039C115.276 42.0039 115.276 38.1431 115.218 37.9398C115.189 37.7366 112.809 37.7657 112.78 37.7657C112.78 37.7657 112.635 31.6986 112.722 31.6405C112.78 31.5824 114.812 31.147 114.87 31.147C114.899 31.147 114.696 27.4312 114.696 27.2861C114.696 27.141 108.541 27.3442 108.541 27.3442V28.7956C108.541 28.7956 106.713 27.3442 104.245 27.3442ZM105.29 31.8147C106.48 31.8147 107.438 33.092 107.438 34.6305C107.438 36.2561 106.48 37.3302 105.174 37.3302C104.013 37.3302 102.881 36.2561 102.881 34.5724C102.881 32.8307 103.839 31.8147 105.29 31.8147Z" fill="#FF841A"/>
<path d="M133.029 34.166C133.029 28.1279 130.039 26.7345 127.078 26.7345C124.61 26.7345 123.275 28.5634 123.275 28.5634L122.346 26.4733C122.346 26.4733 116.598 27.0829 116.598 27.228C116.598 27.3732 117.033 31.2921 117.062 31.2921C117.12 31.2921 118.746 31.147 118.804 31.2051L118.775 38.143L116.859 38.2592C116.83 40.117 117.062 41.9749 117.062 41.9749C117.033 41.9749 125.249 42.062 125.394 41.9169L125.336 38.4333L123.594 38.056L123.565 34.8627C123.565 33.121 124.61 31.9308 125.742 31.9308C127.136 31.9308 127.948 32.9178 127.948 34.8627L127.977 37.9689L126.555 38.2301C126.497 38.7236 126.7 41.9169 126.7 41.9169L134.219 42.0039C134.422 41.075 134.219 38.2301 134.219 38.2301L132.999 37.9689L133.029 34.166Z" fill="#FF841A"/>
<path d="M142.798 31.6115C143.988 31.6115 144.946 32.8888 144.946 34.4273C144.946 36.0529 143.988 37.127 142.682 37.127C141.52 37.127 140.388 36.0529 140.388 34.3692C140.388 32.6275 141.346 31.6115 142.798 31.6115ZM150.432 31.9888C150.491 31.9308 152.232 31.4953 152.29 31.4953C152.319 31.4953 152.116 27.199 152.116 27.0539C152.116 26.9087 145.962 27.1119 145.962 27.1119V28.5634C145.962 28.5634 144.133 27.1119 141.666 27.1119C138.705 27.1119 135.134 28.7376 135.134 34.2531C135.134 40.2332 138.908 42.0039 141.579 42.0039C144.54 42.0039 145.585 40.5235 145.585 40.5235C145.991 41.4524 145.556 44.0941 143.262 44.0941C141.143 44.0941 139.982 43.078 139.982 43.078L138.327 47.2582C138.327 47.2582 139.663 49 143.64 49C149.416 49 150.868 44.2392 150.868 41.7717C150.868 37.2722 150.549 33.6145 150.432 31.9888Z" fill="#FF841A"/>
<path d="M160.876 26.8216C156.986 26.8216 153.445 28.9408 153.445 34.2241C153.445 39.4784 157.944 42.8458 165.376 42.2942C165.376 42.2942 165.956 39.5365 166.014 37.6205C164.157 37.6205 161.283 37.5915 160.876 37.098L166.479 34.0209L167.263 31.0599C167.176 29.8116 164.389 26.8216 160.876 26.8216ZM160.934 30.7696C161.515 30.7696 162.066 31.2341 162.183 31.5244L158.641 33.7016C158.118 32.4823 158.902 30.7696 160.934 30.7696Z" fill="#FF841A"/>
<path d="M168.759 21.7996C168.469 22.1479 168.411 29.7826 168.585 29.7826C168.759 29.7826 172.852 29.9568 172.852 29.8407C172.852 29.7246 172.998 26.154 172.998 26.154L175.407 26.1249C175.407 26.1249 175.639 37.2431 175.639 37.5334C175.639 37.8237 172.156 37.9979 172.098 38.0269C172.04 38.056 171.982 42.0039 172.011 42.062C172.04 42.1201 184.232 42.1781 184.348 41.8878C184.464 41.5975 184.29 37.8528 184.174 37.7366C184.058 37.6205 181.097 37.8237 181.097 37.7366C181.097 37.6496 180.516 26.154 180.661 26.1249C180.806 26.0959 182.809 26.0669 182.809 26.0669C182.809 26.0669 183.1 29.5504 183.187 29.6665C183.274 29.7826 187.048 29.8697 187.077 29.7246C187.106 29.5794 186.99 21.1319 186.961 21.0158C186.932 20.8997 169.05 21.4512 168.759 21.7996Z" fill="#FF841A"/>
<path d="M194.927 27.0829C190.805 27.0829 187.409 29.0859 187.409 34.6595C187.409 40.2622 190.544 42.5555 194.956 42.5555C199.891 42.5555 202.04 38.7236 202.04 34.7176C202.04 29.8407 199.049 27.0829 194.927 27.0829ZM195.043 31.8727C196.466 31.8727 197.046 33.3822 197.046 34.8627C197.046 36.7206 196.176 37.5915 195.043 37.5915C193.969 37.5915 192.692 36.6045 192.692 34.8627C192.692 33.3242 193.273 31.8727 195.043 31.8727Z" fill="#FF841A"/>
<path d="M203.377 42.033C203.377 42.033 211.36 42.033 211.36 41.8878C211.36 41.7427 211.476 38.3753 211.476 38.3172C211.476 38.2592 210.257 38.085 210.257 37.9398C210.257 37.7657 210.228 35.9078 210.344 35.7626C210.663 35.3853 213.421 37.9398 213.595 38.143C213.595 38.2301 212.579 38.4043 212.492 38.4043C212.434 38.4043 212.695 41.6266 212.84 42.033C212.985 42.4104 222.013 42.0039 222.101 41.9459C222.188 41.8878 221.955 38.4624 221.926 38.4333C221.897 38.4043 220.156 38.2592 220.01 38.2011C219.865 38.1431 215.627 34.2241 215.743 33.9919C215.859 33.7887 218.675 31.5244 218.762 31.4663C218.849 31.4083 220.649 31.6695 220.736 31.5244C220.823 31.3792 220.736 27.8377 220.736 27.6635C220.736 27.4893 211.621 27.228 211.621 27.3732C211.621 27.5183 211.824 30.4793 211.882 30.6245C211.969 30.7696 213.189 30.9148 213.189 31.0889C213.189 31.2631 210.17 32.8888 210.17 32.8888C210.17 28.9117 210.489 21.7125 209.705 21.1029C209.56 20.9867 203.086 21.8867 203.057 21.9737C203.028 22.0608 202.912 25.7185 202.941 25.7766C202.97 25.8346 205.235 25.8637 205.235 25.8637L205.293 37.9398C205.293 37.9398 203.348 38.085 203.202 38.085C203.057 38.085 203.348 41.9749 203.377 42.033Z" fill="#FF841A"/>
<path d="M230.189 26.8216C226.299 26.8216 222.758 28.9408 222.758 34.2241C222.758 39.4784 227.257 42.8458 234.689 42.2942C234.689 42.2942 235.269 39.5365 235.327 37.6205C233.47 37.6205 230.596 37.5915 230.189 37.098L235.792 34.0209L236.576 31.0599C236.489 29.8116 233.702 26.8216 230.189 26.8216ZM230.247 30.7696C230.828 30.7696 231.38 31.2341 231.496 31.5244L227.954 33.7016C227.432 32.4823 228.215 30.7696 230.247 30.7696Z" fill="#FF841A"/>
<path d="M254.248 34.166C254.248 28.1279 251.258 26.7345 248.297 26.7345C245.83 26.7345 244.495 28.5634 244.495 28.5634L243.566 26.4733C243.566 26.4733 237.818 27.0829 237.818 27.228C237.818 27.3732 238.253 31.2921 238.282 31.2921C238.34 31.2921 239.966 31.147 240.024 31.2051L239.995 38.143L238.079 38.2592C238.05 40.117 238.282 41.9749 238.282 41.9749C238.253 41.9749 246.469 42.062 246.614 41.9169L246.556 38.4333L244.814 38.056L244.785 34.8627C244.785 33.121 245.83 31.9308 246.962 31.9308C248.355 31.9308 249.168 32.9178 249.168 34.8627L249.197 37.9689L247.775 38.2301C247.717 38.7236 247.92 41.9169 247.92 41.9169L255.439 42.0039C255.642 41.075 255.439 38.2301 255.439 38.2301L254.219 37.9689L254.248 34.166Z" fill="#FF841A"/>
<g clip-path="url(#clip0)">
<path d="M28.8251 13.7625C29.271 13.2137 29.2385 12.2046 29.2665 11.5477C29.2999 10.7511 29.2697 9.95305 29.1761 9.161C28.8989 6.82692 27.4995 4.569 26.0377 2.7602C25.7187 2.3682 26.2835 1.80373 26.6059 2.20021C28.2295 4.20668 29.6358 6.58108 29.9788 9.1582C30.1051 10.1102 30.1062 11.0868 30.0417 12.0422C29.9896 12.8139 29.901 13.692 29.3928 14.3175C29.0698 14.7145 28.5033 14.154 28.8211 13.7608L28.8251 13.7625Z" fill="#033541"/>
<path d="M29.0264 14.5147C23.5029 15.4252 21.4501 13.211 21.0854 12.8011C20.6989 12.3676 19.9369 11.5836 19.3766 9.81403C18.9496 8.46387 18.7181 6.84603 19.1445 6.38403L29.0618 14.5113L29.0264 14.5147Z" fill="#7BAD23"/>
<path d="M19.1445 6.38402C19.1878 6.33583 19.2429 6.29922 19.3046 6.27762C22.3053 5.25842 24.7246 6.03906 27.0221 8.1441C29.3196 10.2491 29.127 14.504 29.127 14.504L29.0618 14.5096L19.1445 6.38402Z" fill="#8CBD40"/>
<path d="M28.5834 56.5074C40.566 56.5074 50.2799 46.9918 50.2799 35.2537C50.2799 23.5156 40.566 14 28.5834 14C16.6008 14 6.88696 23.5156 6.88696 35.2537C6.88696 46.9918 16.6008 56.5074 28.5834 56.5074Z" fill="#FF841A"/>
<path d="M11.1263 24.1803C10.9895 24.3537 10.8154 24.4955 10.6164 24.5958C10.3386 24.7341 9.98756 24.5045 10.0762 24.1887C10.0916 24.1346 10.1107 24.0817 10.1333 24.0302C10.1393 23.9905 10.1508 23.9519 10.1676 23.9154C10.3038 23.6313 10.5311 23.3987 10.8148 23.2529C10.877 23.2218 10.9462 23.2063 11.0161 23.208C11.0859 23.2096 11.1543 23.2284 11.2149 23.2624C11.2893 23.286 11.351 23.3375 11.3867 23.4056C11.4224 23.4738 11.4291 23.5529 11.4053 23.6259C11.3996 23.6488 11.391 23.6707 11.3841 23.6931C11.3533 23.8782 11.263 24.0489 11.1263 24.1803Z" fill="#FF6713"/>
<path d="M10.1081 34.2619C10.2695 34.1869 10.4682 34.1662 10.6084 34.3017C10.6655 34.3549 10.7064 34.4225 10.7266 34.497C10.7468 34.5715 10.7455 34.65 10.7229 34.7239C10.7243 34.7468 10.7243 34.7698 10.7229 34.7928C10.7198 34.9705 10.6731 35.1449 10.5867 35.3012C10.5531 35.3626 10.5038 35.4144 10.4436 35.4514C10.3833 35.4884 10.3142 35.5094 10.2432 35.5123C10.1155 35.5168 9.95233 35.4519 9.89165 35.3331C9.79343 35.1568 9.75799 34.9535 9.79089 34.7552C9.82467 34.5805 9.93688 34.342 10.1081 34.2619Z" fill="#FF6713"/>
<path d="M15.5054 26.4561L15.5157 26.4309C15.5157 26.427 15.5191 26.4225 15.5208 26.418C15.5393 26.3575 15.5739 26.3028 15.621 26.2595C15.6427 26.2379 15.6671 26.2191 15.6937 26.2035C15.7784 26.1566 15.8784 26.144 15.9725 26.1683C16.0329 26.1845 16.088 26.2158 16.1323 26.2591C16.1766 26.3024 16.2088 26.3562 16.2255 26.4152C16.2828 26.5491 16.2146 26.7137 16.1156 26.8123C16.1042 26.8235 16.0921 26.8341 16.0795 26.8442C16.0526 26.8827 16.0166 26.9143 15.9746 26.9363C15.9325 26.9584 15.8857 26.9702 15.838 26.9707C15.7894 26.9688 15.7419 26.9558 15.6994 26.9328C15.6568 26.9097 15.6204 26.8773 15.5929 26.838C15.5787 26.8251 15.566 26.8107 15.5552 26.7949C15.5082 26.7387 15.4829 26.6681 15.4836 26.5955C15.486 26.5419 15.4958 26.4887 15.5128 26.4376L15.5054 26.4561Z" fill="#FF6713"/>
<path d="M14.2661 31.248C14.2218 31.3249 14.2 31.4123 14.2031 31.5006C14.2046 31.5569 14.2204 31.612 14.249 31.6609C14.2777 31.7098 14.3184 31.7509 14.3674 31.7806C14.4182 31.8097 14.476 31.8251 14.5349 31.8251C14.5937 31.8251 14.6515 31.8097 14.7023 31.7806C14.712 31.7745 14.7214 31.768 14.7304 31.761H14.7344C14.8108 31.7312 14.8738 31.6755 14.9118 31.6042C14.9431 31.5495 14.9595 31.4879 14.9595 31.4252C14.9595 31.3626 14.9431 31.301 14.9118 31.2463C14.8799 31.1928 14.8342 31.1484 14.7793 31.1175C14.7243 31.0867 14.6621 31.0704 14.5987 31.0705H14.5861C14.4636 31.0699 14.321 31.1315 14.2661 31.248ZM14.6038 31.1847H14.5998H14.5901H14.5821C14.5892 31.1832 14.5966 31.1826 14.6038 31.183V31.1847ZM14.5535 31.1942C14.5625 31.1914 14.5716 31.1891 14.581 31.1875H14.5855C14.5747 31.1881 14.564 31.1896 14.5535 31.192V31.1942Z" fill="#FF6713"/>
<path d="M11.7937 31.7442C11.8386 31.7021 11.8984 31.6787 11.9606 31.6787C12.0227 31.6787 12.0825 31.7021 12.1275 31.7442C12.1714 31.7801 12.2068 31.825 12.2311 31.8758C12.2528 31.9229 12.2626 31.9745 12.2596 32.0262C12.2566 32.0779 12.2409 32.1281 12.2139 32.1726C12.1876 32.2152 12.1504 32.2505 12.106 32.275C12.0616 32.2995 12.0115 32.3123 11.9606 32.3123C11.9096 32.3123 11.8595 32.2995 11.8151 32.275C11.7708 32.2505 11.7336 32.2152 11.7072 32.1726C11.6805 32.128 11.665 32.0778 11.662 32.0262C11.659 31.9746 11.6686 31.923 11.6901 31.8758C11.7145 31.8251 11.7498 31.7802 11.7937 31.7442Z" fill="#FF6713"/>
<path d="M8.48046 29.6414C8.75812 29.6414 8.75869 30.0636 8.48046 30.0636C8.20223 30.0636 8.20223 29.6414 8.48046 29.6414Z" fill="#FF6713"/>
<path d="M15.9941 22.4C15.5236 22.9942 14.9462 23.3274 14.7055 23.1443C14.4649 22.9611 14.5678 22.2544 15.0388 21.6603C15.5099 21.0661 16.169 20.8096 16.4108 20.9927C16.6527 21.1759 16.464 21.8064 15.9941 22.4Z" fill="#FF6713"/>
<path d="M14.1133 27.0839C13.6463 28.4839 12.9128 29.5904 12.0839 29.3239C11.255 29.0573 10.7085 27.6999 11.1755 26.2999C11.6426 24.8998 12.9477 23.991 13.7766 24.2553C14.6055 24.5196 14.581 25.6839 14.1133 27.0839Z" fill="#FF6713"/>
<path d="M22.7831 35.784C22.8713 37.2324 23.5207 38.5931 24.5988 39.5881C25.6768 40.5831 27.1021 41.1372 28.5833 41.1372C30.0645 41.1372 31.4897 40.5831 32.5678 39.5881C33.6459 38.5931 34.2953 37.2324 34.3834 35.784H22.7831Z" fill="white"/>
<path d="M29.6123 13.6316C30.5172 4.24037 35.1814 1.88277 36.0378 1.47117C36.945 1.03493 38.6103 0.141726 41.8608 0.0151663C44.3401 -0.0811537 47.1899 0.261006 47.7798 1.15981L29.6008 13.6909L29.6123 13.6316Z" fill="#7BAD23"/>
<path d="M47.7798 1.1604C47.8425 1.25203 47.8801 1.35789 47.889 1.46784C48.2857 6.80183 45.8882 10.3914 41.3006 13.1993C36.7129 16.0071 29.5814 13.799 29.5814 13.799L29.6003 13.6915L47.7798 1.1604Z" fill="#8CBD40"/>
<path d="M19.798 34.7239C20.8108 34.7239 21.6319 33.9196 21.6319 32.9274C21.6319 31.9353 20.8108 31.131 19.798 31.131C18.7851 31.131 17.9641 31.9353 17.9641 32.9274C17.9641 33.9196 18.7851 34.7239 19.798 34.7239Z" fill="#033541"/>
<path d="M19.0479 32.8709C19.37 32.8709 19.631 32.6152 19.631 32.2997C19.631 31.9842 19.37 31.7285 19.0479 31.7285C18.7259 31.7285 18.4648 31.9842 18.4648 32.2997C18.4648 32.6152 18.7259 32.8709 19.0479 32.8709Z" fill="white"/>
<path d="M19.3199 33.7473C19.4923 33.7473 19.632 33.6106 19.632 33.4421C19.632 33.2735 19.4923 33.1369 19.3199 33.1369C19.1476 33.1369 19.0079 33.2735 19.0079 33.4421C19.0079 33.6106 19.1476 33.7473 19.3199 33.7473Z" fill="white"/>
<path d="M37.3686 34.7239C38.3815 34.7239 39.2025 33.9196 39.2025 32.9274C39.2025 31.9353 38.3815 31.131 37.3686 31.131C36.3558 31.131 35.5347 31.9353 35.5347 32.9274C35.5347 33.9196 36.3558 34.7239 37.3686 34.7239Z" fill="#033541"/>
<path d="M36.6181 32.8709C36.9401 32.8709 37.2012 32.6152 37.2012 32.2997C37.2012 31.9842 36.9401 31.7285 36.6181 31.7285C36.296 31.7285 36.035 31.9842 36.035 32.2997C36.035 32.6152 36.296 32.8709 36.6181 32.8709Z" fill="white"/>
<path d="M36.8906 33.7473C37.0629 33.7473 37.2026 33.6106 37.2026 33.4421C37.2026 33.2735 37.0629 33.1369 36.8906 33.1369C36.7183 33.1369 36.5786 33.2735 36.5786 33.4421C36.5786 33.6106 36.7183 33.7473 36.8906 33.7473Z" fill="white"/>
</g>
<defs>
<clipPath id="clip0">
<rect width="57.1666" height="56" fill="white"/>
</clipPath>
</defs>
</svg>
