<svg width="58" height="56" viewBox="0 0 58 56" fill="none" xmlns="http://www.w3.org/2000/svg">
<g clip-path="url(#clip0)">
<path d="M28.8251 13.7625C29.271 13.2137 29.2385 12.2046 29.2665 11.5477C29.2999 10.7511 29.2697 9.95305 29.1761 9.161C28.8989 6.82692 27.4995 4.569 26.0377 2.7602C25.7187 2.3682 26.2835 1.80373 26.6059 2.20021C28.2295 4.20668 29.6358 6.58108 29.9788 9.1582C30.1051 10.1102 30.1062 11.0868 30.0416 12.0422C29.9896 12.8139 29.901 13.692 29.3928 14.3175C29.0698 14.7145 28.5033 14.154 28.8211 13.7608L28.8251 13.7625Z" fill="#033541"/>
<path d="M29.0264 14.5147C23.5029 15.4252 21.4501 13.211 21.0853 12.8011C20.6989 12.3676 19.9369 11.5836 19.3766 9.81403C18.9496 8.46387 18.7181 6.84603 19.1445 6.38403L29.0618 14.5113L29.0264 14.5147Z" fill="#7BAD23"/>
<path d="M19.1445 6.38402C19.1878 6.33583 19.2429 6.29922 19.3046 6.27762C22.3053 5.25842 24.7246 6.03906 27.0221 8.1441C29.3196 10.2491 29.1269 14.504 29.1269 14.504L29.0618 14.5096L19.1445 6.38402Z" fill="#8CBD40"/>
<path d="M28.5834 56.5074C40.566 56.5074 50.2799 46.9918 50.2799 35.2537C50.2799 23.5156 40.566 14 28.5834 14C16.6008 14 6.88694 23.5156 6.88694 35.2537C6.88694 46.9918 16.6008 56.5074 28.5834 56.5074Z" fill="#FF841A"/>
<path d="M11.1263 24.1803C10.9895 24.3537 10.8154 24.4956 10.6164 24.5958C10.3386 24.7341 9.98755 24.5045 10.0762 24.1887C10.0916 24.1347 10.1107 24.0817 10.1333 24.0302C10.1393 23.9906 10.1508 23.9519 10.1676 23.9154C10.3038 23.6313 10.5311 23.3987 10.8148 23.2529C10.877 23.2218 10.9462 23.2063 11.0161 23.208C11.0859 23.2097 11.1543 23.2284 11.2149 23.2624C11.2892 23.2861 11.351 23.3376 11.3867 23.4057C11.4224 23.4738 11.429 23.553 11.4053 23.6259C11.3996 23.6488 11.391 23.6707 11.3841 23.6931C11.3533 23.8782 11.263 24.0489 11.1263 24.1803Z" fill="#FF6713"/>
<path d="M10.1081 34.2619C10.2695 34.1869 10.4682 34.1662 10.6084 34.3017C10.6655 34.3549 10.7064 34.4225 10.7266 34.497C10.7468 34.5715 10.7455 34.6501 10.7229 34.7239C10.7243 34.7469 10.7243 34.7699 10.7229 34.7928C10.7198 34.9705 10.6731 35.1449 10.5867 35.3013C10.5531 35.3626 10.5038 35.4144 10.4436 35.4514C10.3833 35.4885 10.3142 35.5095 10.2432 35.5124C10.1155 35.5168 9.95233 35.4519 9.89165 35.3332C9.79343 35.1568 9.75799 34.9535 9.79089 34.7553C9.82467 34.5806 9.93688 34.342 10.1081 34.2619Z" fill="#FF6713"/>
<path d="M15.5054 26.4561L15.5157 26.4309C15.5157 26.427 15.5191 26.4225 15.5208 26.418C15.5393 26.3575 15.5739 26.3028 15.621 26.2595C15.6427 26.2379 15.6671 26.2191 15.6937 26.2035C15.7784 26.1566 15.8784 26.144 15.9725 26.1683C16.0329 26.1845 16.088 26.2158 16.1323 26.2591C16.1767 26.3024 16.2088 26.3562 16.2255 26.4152C16.2828 26.5491 16.2147 26.7137 16.1156 26.8123C16.1042 26.8235 16.0921 26.8341 16.0796 26.8442C16.0526 26.8827 16.0166 26.9143 15.9746 26.9363C15.9325 26.9584 15.8857 26.9702 15.838 26.9707C15.7894 26.9688 15.7419 26.9558 15.6994 26.9328C15.6568 26.9097 15.6204 26.8773 15.5929 26.838C15.5787 26.8251 15.566 26.8107 15.5552 26.7949C15.5082 26.7387 15.4829 26.6681 15.4836 26.5955C15.486 26.5419 15.4959 26.4887 15.5128 26.4376L15.5054 26.4561Z" fill="#FF6713"/>
<path d="M14.2661 31.248C14.2218 31.325 14.2 31.4123 14.2031 31.5006C14.2046 31.5569 14.2203 31.612 14.249 31.6609C14.2777 31.7098 14.3184 31.7509 14.3674 31.7806C14.4182 31.8097 14.476 31.8251 14.5348 31.8251C14.5937 31.8251 14.6515 31.8097 14.7023 31.7806C14.712 31.7746 14.7214 31.768 14.7304 31.761H14.7344C14.8108 31.7312 14.8738 31.6756 14.9118 31.6042C14.9431 31.5495 14.9595 31.4879 14.9595 31.4253C14.9595 31.3626 14.9431 31.301 14.9118 31.2463C14.8799 31.1928 14.8342 31.1484 14.7792 31.1176C14.7243 31.0867 14.662 31.0705 14.5987 31.0705H14.5861C14.4636 31.0699 14.321 31.1315 14.2661 31.248ZM14.6038 31.1847H14.5998H14.5901H14.5821C14.5892 31.1832 14.5965 31.1826 14.6038 31.1831V31.1847ZM14.5535 31.1943C14.5625 31.1914 14.5716 31.1892 14.5809 31.1875H14.5855C14.5747 31.1882 14.564 31.1897 14.5535 31.192V31.1943Z" fill="#FF6713"/>
<path d="M11.7937 31.7442C11.8386 31.7021 11.8984 31.6787 11.9606 31.6787C12.0227 31.6787 12.0825 31.7021 12.1275 31.7442C12.1714 31.7801 12.2068 31.825 12.2311 31.8758C12.2528 31.9229 12.2626 31.9745 12.2596 32.0262C12.2566 32.0779 12.241 32.1281 12.2139 32.1726C12.1876 32.2152 12.1504 32.2505 12.106 32.275C12.0616 32.2995 12.0115 32.3123 11.9606 32.3123C11.9096 32.3123 11.8595 32.2995 11.8151 32.275C11.7708 32.2505 11.7336 32.2152 11.7072 32.1726C11.6805 32.128 11.665 32.0778 11.662 32.0262C11.659 31.9746 11.6686 31.923 11.6901 31.8758C11.7145 31.8251 11.7499 31.7802 11.7937 31.7442Z" fill="#FF6713"/>
<path d="M8.48047 29.6414C8.75813 29.6414 8.7587 30.0636 8.48047 30.0636C8.20224 30.0636 8.20224 29.6414 8.48047 29.6414Z" fill="#FF6713"/>
<path d="M15.9941 22.4C15.5236 22.9942 14.9462 23.3274 14.7055 23.1443C14.4648 22.9611 14.5677 22.2544 15.0388 21.6603C15.5099 21.0661 16.169 20.8096 16.4108 20.9927C16.6526 21.1759 16.464 21.8064 15.9941 22.4Z" fill="#FF6713"/>
<path d="M14.1134 27.0839C13.6463 28.4839 12.9129 29.5904 12.084 29.3239C11.255 29.0573 10.7085 27.6999 11.1756 26.2999C11.6426 24.8998 12.9477 23.991 13.7767 24.2553C14.6056 24.5196 14.581 25.6839 14.1134 27.0839Z" fill="#FF6713"/>
<path d="M22.7831 35.784C22.8713 37.2324 23.5207 38.5931 24.5988 39.5881C25.6768 40.5831 27.1021 41.1372 28.5833 41.1372C30.0645 41.1372 31.4897 40.5831 32.5678 39.5881C33.6459 38.5931 34.2953 37.2324 34.3834 35.784H22.7831Z" fill="white"/>
<path d="M29.6123 13.6316C30.5172 4.24043 35.1814 1.88283 36.0378 1.47123C36.945 1.03499 38.6103 0.141787 41.8608 0.0152273C44.3401 -0.0810926 47.1899 0.261067 47.7798 1.15987L29.6008 13.691L29.6123 13.6316Z" fill="#7BAD23"/>
<path d="M47.7798 1.1604C47.8425 1.25203 47.8801 1.35789 47.889 1.46784C48.2857 6.80183 45.8882 10.3914 41.3005 13.1993C36.7129 16.0071 29.5814 13.799 29.5814 13.799L29.6003 13.6915L47.7798 1.1604Z" fill="#8CBD40"/>
<path d="M19.798 34.7239C20.8108 34.7239 21.6319 33.9196 21.6319 32.9275C21.6319 31.9353 20.8108 31.131 19.798 31.131C18.7851 31.131 17.9641 31.9353 17.9641 32.9275C17.9641 33.9196 18.7851 34.7239 19.798 34.7239Z" fill="#033541"/>
<path d="M19.0479 32.8709C19.37 32.8709 19.631 32.6151 19.631 32.2997C19.631 31.9842 19.37 31.7285 19.0479 31.7285C18.7259 31.7285 18.4648 31.9842 18.4648 32.2997C18.4648 32.6151 18.7259 32.8709 19.0479 32.8709Z" fill="white"/>
<path d="M19.3199 33.7472C19.4922 33.7472 19.6319 33.6106 19.6319 33.442C19.6319 33.2735 19.4922 33.1368 19.3199 33.1368C19.1476 33.1368 19.0079 33.2735 19.0079 33.442C19.0079 33.6106 19.1476 33.7472 19.3199 33.7472Z" fill="white"/>
<path d="M37.3686 34.7239C38.3815 34.7239 39.2026 33.9196 39.2026 32.9275C39.2026 31.9353 38.3815 31.131 37.3686 31.131C36.3558 31.131 35.5347 31.9353 35.5347 32.9275C35.5347 33.9196 36.3558 34.7239 37.3686 34.7239Z" fill="#033541"/>
<path d="M36.6181 32.8709C36.9401 32.8709 37.2012 32.6151 37.2012 32.2997C37.2012 31.9842 36.9401 31.7285 36.6181 31.7285C36.296 31.7285 36.035 31.9842 36.035 32.2997C36.035 32.6151 36.296 32.8709 36.6181 32.8709Z" fill="white"/>
<path d="M36.8906 33.7472C37.0629 33.7472 37.2026 33.6106 37.2026 33.442C37.2026 33.2735 37.0629 33.1368 36.8906 33.1368C36.7183 33.1368 36.5786 33.2735 36.5786 33.442C36.5786 33.6106 36.7183 33.7472 36.8906 33.7472Z" fill="white"/>
</g>
<defs>
<clipPath id="clip0">
<rect width="57.1666" height="56" fill="white"/>
</clipPath>
</defs>
</svg>
