<svg width="562" height="562" viewBox="0 0 562 562" fill="none" xmlns="http://www.w3.org/2000/svg">
<g clip-path="url(#clip0)">
<path d="M122.061 348.125C123.408 348.128 124.718 347.68 125.781 346.852C126.845 346.024 127.6 344.865 127.928 343.557C128.256 342.25 128.137 340.871 127.59 339.64C127.043 338.408 126.1 337.395 124.91 336.762C110.248 328.894 70.8738 303.795 64.8717 282.006C64.4361 280.609 64.3343 279.129 64.5744 277.686C64.8145 276.242 65.3899 274.875 66.2542 273.694C75.0889 260.768 109.938 254.586 122.617 253.31C124.146 253.073 125.525 252.259 126.47 251.035C127.415 249.811 127.855 248.271 127.698 246.732C127.54 245.194 126.799 243.774 125.625 242.766C124.452 241.759 122.937 241.24 121.392 241.317C116.154 241.845 69.8566 247.066 56.2899 266.883C54.4384 269.514 53.2019 272.527 52.6717 275.7C52.1415 278.873 52.3314 282.125 53.2271 285.215C61.82 316.457 116.896 346.192 119.223 347.412C120.095 347.881 121.07 348.126 122.061 348.125Z" fill="#133441"/>
<path d="M133.025 342.41C132.048 341.055 118.183 332.856 107.173 337.846C100.188 341.078 100.918 346.872 100.918 346.872C100.918 346.872 94.7982 348.845 94.5228 353.712C94.2474 358.578 96.9 373.87 114.564 372.539C126.512 371.639 138.252 349.665 133.025 342.41Z" fill="#133441"/>
<path d="M301.906 107.409C299.153 103.228 300.018 96.0683 300.22 91.37C300.495 85.6796 301.216 80.0197 302.378 74.4426C305.801 58.0041 316.99 42.7907 328.343 30.8482C330.816 28.2462 327.219 23.885 324.74 26.5208C312.135 39.784 300.799 55.801 296.764 73.9311C295.344 80.6697 294.582 87.5302 294.488 94.416C294.364 99.9405 294.421 106.246 297.562 111.012C299.563 114.041 303.868 110.405 301.89 107.404L301.906 107.409Z" fill="#133441"/>
<path d="M299.439 110.461C337.369 120.392 353.088 105.915 355.892 103.228C358.865 100.379 364.682 95.2758 369.717 83.0355C373.556 73.6894 376.203 62.3033 373.522 58.7627L299.192 110.411L299.439 110.461Z" fill="#8CB201"/>
<path d="M373.522 58.7627C373.25 58.3934 372.888 58.0995 372.471 57.9085C352.205 48.7816 334.817 52.8224 317.463 66.3385C300.108 79.8546 298.742 110.304 298.742 110.304L299.192 110.382L373.522 58.7627Z" fill="#9DC232"/>
<path opacity="0.1" d="M281 562C147.057 562 38.4746 553.777 38.4746 543.634C38.4746 533.49 147.057 525.268 281 525.268C414.943 525.268 523.526 533.49 523.526 543.634C523.526 553.777 414.943 562 281 562Z" fill="black"/>
<path d="M303.615 391.978L312.332 538.076L341.645 535.333L323.094 390.152L303.615 391.978Z" fill="#192A37"/>
<path d="M337.824 505.452L341.64 535.333L312.332 538.076L310.381 505.452H337.824Z" fill="#CF0303"/>
<path d="M357.381 521.609L325.701 523.295C321.978 523.491 318.472 525.108 315.905 527.813C313.339 530.519 311.909 534.105 311.91 537.834V543.634H370.594L357.381 521.609Z" fill="#CF0303"/>
<path d="M374.101 543.6C374.101 531.438 369.695 521.575 358.399 521.575C347.102 521.575 342.696 531.438 342.696 543.6H374.101Z" fill="white"/>
<path d="M326.68 508.94L339.41 506.362C341.031 506.033 342.612 507.082 342.94 508.703C343.269 510.324 342.221 511.905 340.599 512.233L327.87 514.812C326.248 515.14 324.668 514.092 324.339 512.471C324.011 510.849 325.059 509.268 326.68 508.94Z" fill="white"/>
<path d="M329.925 518.927L342.654 516.349C344.276 516.021 345.856 517.069 346.185 518.69C346.513 520.312 345.465 521.892 343.843 522.221L331.114 524.799C329.493 525.127 327.912 524.079 327.584 522.458C327.255 520.836 328.303 519.256 329.925 518.927Z" fill="white"/>
<path d="M239.182 390.152L220.63 535.333L249.944 538.076L258.661 391.978L239.182 390.152Z" fill="#192A37"/>
<path d="M251.888 505.452L249.944 538.076L220.63 535.333L224.452 505.452H251.888Z" fill="#CF0303"/>
<path d="M204.894 521.609L236.574 523.295C240.298 523.49 243.806 525.106 246.374 527.812C248.941 530.517 250.372 534.104 250.371 537.834V543.634H191.681L204.894 521.609Z" fill="#CF0303"/>
<path d="M188.174 543.6C188.174 531.438 192.581 521.575 203.877 521.575C215.173 521.575 219.573 531.438 219.573 543.6H188.174Z" fill="white"/>
<path d="M234.337 514.79L221.608 512.211C219.986 511.883 218.938 510.302 219.267 508.681C219.595 507.059 221.176 506.011 222.797 506.34L235.527 508.918C237.148 509.246 238.196 510.827 237.868 512.448C237.539 514.07 235.959 515.118 234.337 514.79Z" fill="white"/>
<path d="M231.09 524.783L218.361 522.204C216.739 521.876 215.691 520.295 216.02 518.674C216.348 517.052 217.929 516.004 219.55 516.333L232.28 518.911C233.901 519.239 234.949 520.82 234.621 522.441C234.292 524.063 232.712 525.111 231.09 524.783Z" fill="white"/>
<path d="M98.1476 197.875C110.27 167.673 123.438 149.425 163.21 124.562C236.962 82.7039 412.334 100.244 458.772 171.326C480.651 204.815 488.946 245.982 480.285 284.288C468.995 334.233 428.632 377.063 377.816 396.913C350.564 407.557 320.778 411.974 291.195 412.087C242.076 412.317 192.181 400.431 152.128 374.129C136.6 363.929 124.522 351.981 115.727 336.205C98.1252 304.655 81.6473 239.002 98.1476 197.875Z" fill="#FF8804"/>
<path d="M297.079 105.746C296.736 38.3397 265.736 18.6472 260.026 15.174C253.979 11.4986 242.925 4.10265 220.355 1.17463C203.135 -1.07337 183.043 -0.404591 178.362 5.62005L297.113 106.179L297.079 105.746Z" fill="#8CB201"/>
<path d="M178.362 5.62C177.865 6.23216 177.534 6.96177 177.401 7.73874C171.219 45.4602 185.651 72.5036 215.847 95.3601C246.044 118.217 297.174 106.954 297.174 106.954L297.113 106.173L178.362 5.62Z" fill="#9DC232"/>
<path d="M147.806 336.267C186.46 364.586 237.726 374.483 286.873 374.23C316.451 374.09 346.243 369.667 373.494 359.023C424.31 339.173 464.684 296.343 475.975 246.398C478.037 237.224 479.156 227.863 479.313 218.461C484.652 240.047 485.18 262.628 480.285 284.293C468.995 334.238 428.632 377.068 377.816 396.918C350.564 407.562 320.778 411.98 291.195 412.092C242.076 412.323 192.181 400.436 152.128 374.135C136.6 363.934 128.091 353.773 117.649 339.043C108.191 325.707 102.756 307.571 98.7602 292.038C95.3433 278.791 91.7689 259.127 91.7689 250.697C91.9825 251.602 99.8674 301.137 147.806 336.267Z" fill="#F06904"/>
<path d="M432.701 353.773C433.091 353.772 433.481 353.734 433.864 353.661C436.472 353.15 497.786 340.842 515.163 313.489C516.928 310.796 518.064 307.74 518.486 304.548C518.908 301.356 518.606 298.109 517.602 295.05C510.425 272.137 467.691 253.591 462.841 251.557C461.375 250.992 459.747 251.021 458.302 251.636C456.857 252.251 455.708 253.405 455.1 254.853C454.491 256.3 454.47 257.928 455.041 259.391C455.612 260.855 456.731 262.038 458.159 262.69C469.905 267.636 501.433 283.737 506.087 298.658C506.562 300.04 506.708 301.513 506.513 302.961C506.318 304.409 505.787 305.792 504.963 306.998C492.823 326.106 447.847 338.594 431.532 341.792C430.064 342.086 428.758 342.915 427.867 344.117C426.975 345.319 426.562 346.81 426.707 348.3C426.851 349.79 427.544 351.173 428.651 352.181C429.757 353.189 431.198 353.75 432.695 353.757L432.701 353.773Z" fill="#133441"/>
<path d="M422.129 344.838C423.461 343.826 439.119 340.016 448.161 348.03C453.899 353.161 451.505 358.494 451.505 358.494C451.505 358.494 456.782 362.164 455.625 366.924C454.467 371.684 447.448 385.504 430.947 379.063C419.814 374.691 415.003 350.244 422.129 344.838Z" fill="#133441"/>
<path d="M440.647 179.587C441.942 181.264 443.59 182.634 445.475 183.6C448.105 184.943 451.443 182.723 450.589 179.666C450.435 179.143 450.247 178.63 450.027 178.132C449.971 177.744 449.861 177.365 449.701 177.008C448.415 174.261 446.263 172.012 443.575 170.606C442.988 170.306 442.336 170.157 441.676 170.172C441.017 170.186 440.372 170.365 439.799 170.691C439.095 170.921 438.511 171.42 438.173 172.079C437.835 172.738 437.771 173.503 437.995 174.209C438.051 174.428 438.13 174.642 438.197 174.855C438.481 176.656 439.34 178.316 440.647 179.587Z" fill="#F06904"/>
<path d="M450.291 277.021C448.763 276.29 446.886 276.094 445.559 277.403C445.022 277.919 444.637 278.572 444.447 279.292C444.256 280.011 444.268 280.77 444.48 281.483C444.466 281.706 444.466 281.929 444.48 282.152C444.509 283.869 444.951 285.554 445.767 287.064C446.083 287.654 446.546 288.152 447.111 288.509C447.677 288.867 448.325 289.072 448.993 289.104C450.201 289.149 451.741 288.542 452.314 287.373C453.243 285.668 453.577 283.703 453.264 281.787C452.972 280.095 451.91 277.791 450.291 277.021Z" fill="#F06904"/>
<path d="M399.189 201.584C399.16 201.505 399.127 201.421 399.093 201.342C399.072 201.292 399.048 201.243 399.02 201.196C398.845 200.611 398.518 200.083 398.07 199.667C397.868 199.45 397.638 199.261 397.385 199.105C396.585 198.651 395.639 198.526 394.749 198.757C394.178 198.915 393.659 199.218 393.24 199.637C392.821 200.055 392.518 200.575 392.36 201.145C391.826 202.444 392.456 204.029 393.394 204.984C393.502 205.094 393.616 205.198 393.737 205.293C393.993 205.665 394.334 205.97 394.732 206.182C395.13 206.395 395.573 206.508 396.025 206.513C396.484 206.496 396.933 206.371 397.335 206.148C397.738 205.926 398.082 205.612 398.34 205.231C398.472 205.107 398.589 204.967 398.688 204.815C399.134 204.274 399.377 203.594 399.374 202.893C399.349 202.372 399.254 201.856 399.093 201.359C399.138 201.466 399.166 201.522 399.189 201.584Z" fill="#F06904"/>
<path d="M410.923 247.876C411.342 248.618 411.548 249.462 411.519 250.315C411.506 250.86 411.357 251.392 411.086 251.865C410.815 252.338 410.431 252.736 409.968 253.024C409.488 253.304 408.942 253.451 408.386 253.451C407.83 253.451 407.284 253.304 406.804 253.024C406.708 252.967 406.624 252.894 406.534 252.833H406.5C405.774 252.549 405.175 252.012 404.814 251.321C404.52 250.791 404.366 250.196 404.366 249.59C404.366 248.984 404.52 248.388 404.814 247.859C405.118 247.344 405.551 246.917 406.07 246.621C406.59 246.325 407.178 246.171 407.776 246.173H407.894C409.052 246.156 410.406 246.763 410.923 247.876ZM407.737 247.263H407.765H407.866H407.939C407.871 247.259 407.803 247.265 407.737 247.28V247.263ZM408.209 247.359L407.95 247.286H407.905C408.009 247.298 408.111 247.323 408.209 247.359Z" fill="#F06904"/>
<path d="M434.33 252.686C433.91 252.273 433.344 252.041 432.754 252.041C432.164 252.041 431.598 252.273 431.178 252.686C430.758 253.031 430.423 253.467 430.2 253.962C429.993 254.416 429.9 254.914 429.927 255.412C429.954 255.91 430.102 256.394 430.357 256.823C430.608 257.233 430.96 257.572 431.38 257.807C431.8 258.043 432.273 258.166 432.754 258.166C433.235 258.166 433.708 258.043 434.128 257.807C434.548 257.572 434.9 257.233 435.151 256.823C435.403 256.393 435.549 255.909 435.577 255.412C435.604 254.914 435.512 254.417 435.308 253.962C435.08 253.47 434.746 253.035 434.33 252.686Z" fill="#F06904"/>
<path d="M465.696 232.365C463.071 232.365 463.065 236.45 465.696 236.45C468.326 236.45 468.326 232.365 465.696 232.365Z" fill="#F06904"/>
<path d="M394.569 162.418C399.02 168.156 404.483 171.376 406.764 169.606C409.046 167.836 408.068 161.007 403.612 155.269C399.155 149.531 392.934 147.042 390.629 148.812C388.325 150.582 390.112 156.646 394.569 162.418Z" fill="#F06904"/>
<path d="M412.368 207.648C416.79 221.181 423.748 231.876 431.577 229.296C439.405 226.716 444.604 213.56 440.181 200.072C435.758 186.584 423.377 177.755 415.56 180.312C407.742 182.869 407.945 194.12 412.368 207.648Z" fill="#F06904"/>
<path d="M186.23 146.963C181.093 140.995 174.327 136.47 166.397 135.38C158.99 134.363 151.864 136.673 145.912 141.034C143.99 142.439 140.995 141.354 139.882 139.449C138.572 137.201 139.533 134.829 141.461 133.419C149.133 127.79 158.714 125.409 168.128 126.793C177.682 128.164 186.241 133.492 192.463 140.73C194.019 142.534 194.238 145.193 192.463 146.963C190.878 148.553 187.792 148.778 186.23 146.963Z" fill="#133441"/>
<path d="M318.238 166.605C313.101 160.636 306.335 156.112 298.405 155.028C290.998 154.011 283.866 156.315 277.915 160.648C275.993 162.058 272.997 160.974 271.884 159.069C270.575 156.821 271.542 154.449 273.464 153.033C281.136 147.423 290.705 145.054 300.108 146.435C309.662 147.812 318.221 153.134 324.448 160.372C325.999 162.176 326.219 164.835 324.448 166.605C322.858 168.195 319.772 168.42 318.216 166.605H318.238Z" fill="#133441"/>
<path d="M295.91 211.694C287.778 211.694 281.185 205.102 281.185 196.97C281.185 188.838 287.778 182.245 295.91 182.245C304.042 182.245 310.634 188.838 310.634 196.97C310.634 205.102 304.042 211.694 295.91 211.694Z" fill="#133441"/>
<path d="M301.94 196.503C299.355 196.503 297.259 194.407 297.259 191.822C297.259 189.236 299.355 187.14 301.94 187.14C304.526 187.14 306.622 189.236 306.622 191.822C306.622 194.407 304.526 196.503 301.94 196.503Z" fill="white"/>
<path d="M299.754 203.691C298.373 203.691 297.253 202.572 297.253 201.19C297.253 199.809 298.373 198.689 299.754 198.689C301.135 198.689 302.255 199.809 302.255 201.19C302.255 202.572 301.135 203.691 299.754 203.691Z" fill="white"/>
<path d="M167.987 196.97C159.855 196.97 153.263 190.377 153.263 182.245C153.263 174.113 159.855 167.521 167.987 167.521C176.119 167.521 182.712 174.113 182.712 182.245C182.712 190.377 176.119 196.97 167.987 196.97Z" fill="#133441"/>
<path d="M174.012 181.779C171.427 181.779 169.331 179.683 169.331 177.097C169.331 174.512 171.427 172.416 174.012 172.416C176.598 172.416 178.694 174.512 178.694 177.097C178.694 179.683 176.598 181.779 174.012 181.779Z" fill="white"/>
<path d="M171.832 188.961C170.45 188.961 169.331 187.842 169.331 186.46C169.331 185.079 170.45 183.959 171.832 183.959C173.213 183.959 174.332 185.079 174.332 186.46C174.332 187.842 173.213 188.961 171.832 188.961Z" fill="white"/>
<path d="M189.203 262.623C212.501 269.452 237.416 268.264 259.959 259.251C262.589 258.2 263.735 262.465 261.128 263.505C237.821 272.75 212.093 273.937 188.034 266.877C185.314 266.073 186.472 261.819 189.203 262.623Z" fill="#AB1700"/>
</g>
<defs>
<clipPath id="clip0">
<rect width="562" height="562" fill="white" transform="matrix(-1 0 0 1 562 0)"/>
</clipPath>
</defs>
</svg>
